<?xml version="1.0" encoding="utf-8"?>
<!-- Generator: Adobe Illustrator 21.0.0, SVG Export Plug-In . SVG Version: 6.00 Build 0)  -->
<svg version="1.1" id="Layer_1" xmlns="http://www.w3.org/2000/svg" xmlns:xlink="http://www.w3.org/1999/xlink" x="0px" y="0px"
	 viewBox="0 0 512 512" style="enable-background:new 0 0 512 512;" xml:space="preserve">
<g>
	<g>
		<g>
			<path d="M202.7,10.7C202.7,4.8,197.9,0,192,0h-85.3C83.1,0,64,19.1,64,42.7v426.7c0,23.5,19.1,42.7,42.7,42.7H192
				c5.9,0,10.7-4.8,10.7-10.7c0-29.4,23.9-53.3,53.3-53.3s53.3,23.9,53.3,53.3c0,5.9,4.8,10.7,10.7,10.7h85.3
				c23.5,0,42.7-19.1,42.7-42.7V42.7C448,19.1,428.9,0,405.3,0H320c-5.9,0-10.7,4.8-10.7,10.7c0,29.4-23.9,53.3-53.3,53.3
				S202.7,40.1,202.7,10.7z M256,85.3c37.6,0,68.7-27.9,73.9-64h75.4c11.8,0,21.3,9.6,21.3,21.3v426.7c0,11.8-9.6,21.3-21.3,21.3
				h-75.4c-5.2-36.1-36.4-64-73.9-64s-68.7,27.9-73.9,64h-75.4c-11.8,0-21.3-9.6-21.3-21.3V42.7c0-11.8,9.6-21.3,21.3-21.3h75.4
				C187.3,57.5,218.4,85.3,256,85.3z"/>
			<path d="M104,373.3c0,5.9,4.8,10.7,10.7,10.7h24c5.9,0,10.7-4.8,10.7-10.7s-4.8-10.7-10.7-10.7h-24
				C108.8,362.7,104,367.4,104,373.3z"/>
			<path d="M192,373.3c0,5.9,4.8,10.7,10.7,10.7H224c5.9,0,10.7-4.8,10.7-10.7s-4.8-10.7-10.7-10.7h-21.3
				C196.8,362.7,192,367.4,192,373.3z"/>
			<path d="M277.3,373.3c0,5.9,4.8,10.7,10.7,10.7h21.3c5.9,0,10.7-4.8,10.7-10.7s-4.8-10.7-10.7-10.7H288
				C282.1,362.7,277.3,367.4,277.3,373.3z"/>
			<path d="M362.7,373.3c0,5.9,4.8,10.7,10.7,10.7h21.3c5.9,0,10.7-4.8,10.7-10.7s-4.8-10.7-10.7-10.7h-21.3
				C367.4,362.7,362.7,367.4,362.7,373.3z"/>
			<path d="M151.1,154.1c-3.3,4.9-1.9,11.5,3,14.8l192,128c4.9,3.3,11.5,1.9,14.8-3c1.2-1.8,1.8-3.9,1.8-5.9c0-3.4-1.7-6.8-4.8-8.9
				l-192-128C161,147.9,154.4,149.2,151.1,154.1z"/>
			<path d="M202.7,234.7c-29.4,0-53.3,19.1-53.3,42.7s23.9,42.7,53.3,42.7s53.3-19.1,53.3-42.7S232.1,234.7,202.7,234.7z
				 M202.7,298.7c-17.3,0-32-9.8-32-21.3c0-11.6,14.7-21.3,32-21.3s32,9.8,32,21.3S220,298.7,202.7,298.7z"/>
			<path d="M256,170.7c0,23.5,23.9,42.7,53.3,42.7s53.3-19.1,53.3-42.7c0-23.5-23.9-42.7-53.3-42.7S256,147.1,256,170.7z
				 M341.3,170.7c0,11.6-14.7,21.3-32,21.3s-32-9.8-32-21.3c0-11.6,14.7-21.3,32-21.3S341.3,159.1,341.3,170.7z"/>
		</g>
	</g>
</g>
</svg>
