<?xml version="1.0" encoding="iso-8859-1"?>
<!-- Generator: Adobe Illustrator 19.0.0, SVG Export Plug-In . SVG Version: 6.00 Build 0)  -->
<svg version="1.1" id="Capa_1" xmlns="http://www.w3.org/2000/svg" xmlns:xlink="http://www.w3.org/1999/xlink" x="0px" y="0px"
	 viewBox="0 0 496 496" style="enable-background:new 0 0 496 496;" xml:space="preserve">
<g>
	<g>
		<g>
			<path d="M424.504,411.608c-11.152-35.688-42.24-62.424-79.2-68.112L304,337.136v-8.288c26.92-15.624,46.784-42.072,53.488-73.4
				C376.928,252.736,392,236.176,392,216v-93.4c0-32.392-19.832-61.176-49.752-72.84C330.584,19.832,301.792,0,269.4,0H248
				c-79.4,0-144,64.6-144,144v72c0,20.176,15.072,36.736,34.512,39.448c6.704,31.328,26.568,57.776,53.488,73.4v8.288l-41.304,6.352
				c-36.96,5.688-68.048,32.424-79.2,68.112L45.12,496h405.76L424.504,411.608z M315.84,355.144l10.2,25.496l-44.36,26.616
				l30.128,22.6l-49.448,19.776l38.712-96.76L315.84,355.144z M359.664,238.632C359.792,236.424,360,234.24,360,232v-38.528
				c9.288,3.312,16,12.112,16,22.528C376,226.536,369.128,235.416,359.664,238.632z M248,16h21.4
				c26.816,0,50.528,17.088,59.008,42.528l1.264,3.792l3.792,1.264c5.984,2,11.456,4.896,16.4,8.416h-55.968
				C283.76,57.512,266.984,48,248,48s-35.76,9.512-45.888,24h-59.856C165.32,38.224,204.104,16,248,16z M288,104
				c0,22.056-17.944,40-40,40c-22.056,0-40-17.944-40-40c0-22.056,17.944-40,40-40C270.056,64,288,81.944,288,104z M133.08,88h61.28
				c-1.52,5.072-2.36,10.44-2.36,16s0.84,10.928,2.36,16h-72.024C124.488,108.728,128.176,98.024,133.08,88z M120,216
				c0-10.416,6.712-19.216,16-22.528V232c0,2.24,0.208,4.424,0.336,6.632C126.872,235.416,120,226.536,120,216z M152,232v-80h-16
				v24.808c-5.944,1.216-11.328,3.856-16,7.392V144c0-2.704,0.24-5.344,0.408-8h81.704c10.136,14.488,26.912,24,45.888,24
				s35.76-9.512,45.888-24H312v-16h-10.36c1.52-5.072,2.36-10.44,2.36-16s-0.84-10.928-2.36-16h63.72
				c6.248,9.312,9.944,20.304,10.432,32H328v16h48v48.208c-4.672-3.536-10.056-6.184-16-7.392V152h-16v80c0,52.936-43.064,96-96,96
				C195.064,328,152,284.936,152,232z M180.16,355.144l14.768-2.272l37.864,94.656L184.528,429.6l29.792-22.344l-44.36-26.616
				L180.16,355.144z M240,480h-94.936l6.872-55.008l-15.872-1.984L128.936,480H66.88l19.888-63.624
				c9.344-29.904,35.392-52.312,66.36-57.072l8.672-1.336l-11.752,29.384l35.64,21.384l-34.208,25.656L240,467.28V480z M208,342.456
				v-5.968c12.44,4.784,25.896,7.512,40,7.512s27.56-2.728,40-7.512v5.968l-40,100L208,342.456z M359.936,423.008l-15.872,1.984
				L350.936,480H256v-10.584l88.184-35.28l-33.872-25.4l35.64-21.384L334.2,357.968l8.672,1.336
				c30.968,4.768,57.016,27.168,66.36,57.072L429.12,480h-62.056L359.936,423.008z"/>
			<path d="M303.592,266.528l-15.176-5.064C288.344,261.656,281.304,280,248,280c-33.144,0-40.168-17.888-40.456-18.656
				l-15.136,5.184C192.816,267.736,202.752,296,248,296S303.184,267.736,303.592,266.528z"/>
			<path d="M248,80c-13.232,0-24,10.768-24,24s10.768,24,24,24s24-10.768,24-24S261.232,80,248,80z M248,112c-4.408,0-8-3.592-8-8
				s3.592-8,8-8s8,3.592,8,8S252.408,112,248,112z"/>
			<rect x="296" y="184" width="16" height="16"/>
			<rect x="184" y="184" width="16" height="16"/>
		</g>
	</g>
</g>
<g>
</g>
<g>
</g>
<g>
</g>
<g>
</g>
<g>
</g>
<g>
</g>
<g>
</g>
<g>
</g>
<g>
</g>
<g>
</g>
<g>
</g>
<g>
</g>
<g>
</g>
<g>
</g>
<g>
</g>
</svg>
