<?xml version="1.0" encoding="iso-8859-1"?>
<!-- Generator: Adobe Illustrator 19.0.0, SVG Export Plug-In . SVG Version: 6.00 Build 0)  -->
<svg version="1.1" id="Layer_1" xmlns="http://www.w3.org/2000/svg" xmlns:xlink="http://www.w3.org/1999/xlink" x="0px" y="0px"
	 viewBox="0 0 512 512" style="enable-background:new 0 0 512 512;" xml:space="preserve">
<g>
	<g>
		<path d="M265.999,157.04V70.947c0-5.522-4.477-10-10-10c-5.523,0-10,4.478-10,10v86.094
			c-13.046,11.923-53.845,51.584-53.845,81.267c0,35.204,28.641,63.845,63.845,63.845c35.204,0,63.845-28.641,63.845-63.845
			C319.844,208.625,279.045,168.964,265.999,157.04z M255.998,282.154c-24.176,0-43.845-19.669-43.845-43.845
			c0-13.61,17.073-35.812,33.845-53.325v54.329c0,5.522,4.477,10,10,10c5.523,0,10-4.477,10-10v-54.33
			c16.773,17.514,33.845,39.716,33.845,53.326C299.844,262.485,280.175,282.154,255.998,282.154z"/>
	</g>
</g>
<g>
	<g>
		<path d="M493.705,152.242c-11.664-11.353-26.982-17.604-43.134-17.604H296.355c-4.048,0-7.697,2.44-9.242,6.182
			c-1.546,3.741-0.684,8.045,2.184,10.902c5.85,5.829,11.322,11.667,16.265,17.352c23.389,26.901,34.283,48.901,34.283,69.235
			c0,4.907-0.431,9.834-1.281,14.643c-0.886,5.013-2.263,10.01-4.091,14.854c0,0,0,0.001-0.001,0.001
			c-12.264,32.506-43.8,54.346-78.472,54.346c-34.671,0-66.206-21.838-78.47-54.34c-2.194-5.814-3.734-11.862-4.579-17.976
			c-0.528-3.828-0.796-7.707-0.796-11.529c0-20.334,10.894-42.334,34.283-69.235c4.941-5.684,10.414-11.521,16.265-17.353
			c2.867-2.856,3.73-7.161,2.184-10.901c-1.546-3.741-5.194-6.182-9.242-6.182H61.427c-16.152,0-31.47,6.252-43.133,17.604
			C6.497,163.725,0,178.934,0,195.067v70.71v175.275c0,5.522,4.477,10,10,10h492c5.523,0,10-4.478,10-10V265.775v-70.707
			C512,178.934,505.503,163.725,493.705,152.242z M20,195.063c0-21.911,18.971-40.426,41.427-40.426h131.064
			c-0.386,0.438-0.768,0.876-1.148,1.313c-26.737,30.753-39.19,56.923-39.19,82.359c0,4.016,0.238,8.077,0.709,12.104
			c-0.062-0.051-0.125-0.103-0.187-0.154c-0.153-0.126-0.306-0.252-0.46-0.379c-0.146-0.12-0.293-0.24-0.44-0.361
			c-0.164-0.134-0.328-0.269-0.494-0.404c-0.137-0.112-0.275-0.224-0.414-0.336c-0.166-0.135-0.333-0.27-0.501-0.405
			c-0.141-0.114-0.283-0.227-0.425-0.341c-0.169-0.135-0.338-0.271-0.509-0.406c-0.142-0.113-0.285-0.225-0.428-0.338
			c-0.173-0.136-0.346-0.272-0.521-0.408c-0.145-0.113-0.292-0.226-0.439-0.339c-0.176-0.136-0.353-0.272-0.532-0.408
			c-0.146-0.111-0.294-0.222-0.442-0.334c-0.183-0.137-0.367-0.275-0.552-0.412c-0.148-0.109-0.298-0.219-0.448-0.328
			c-0.188-0.137-0.375-0.274-0.565-0.41c-0.155-0.111-0.311-0.221-0.467-0.332c-0.188-0.133-0.376-0.266-0.567-0.398
			c-0.161-0.112-0.324-0.223-0.487-0.334c-0.193-0.132-0.386-0.263-0.582-0.394c-0.162-0.108-0.326-0.215-0.49-0.323
			c-0.2-0.131-0.4-0.262-0.603-0.392c-0.168-0.107-0.338-0.214-0.508-0.321c-0.203-0.127-0.405-0.254-0.611-0.38
			c-0.174-0.107-0.352-0.212-0.528-0.318c-0.207-0.124-0.414-0.248-0.624-0.371c-0.181-0.105-0.365-0.209-0.548-0.313
			c-0.211-0.12-0.421-0.24-0.634-0.358c-0.187-0.104-0.378-0.205-0.567-0.307c-0.216-0.116-0.432-0.233-0.651-0.347
			c-0.192-0.1-0.387-0.198-0.582-0.297c-0.222-0.113-0.444-0.226-0.669-0.336c-0.198-0.097-0.4-0.192-0.601-0.287
			c-0.228-0.109-0.456-0.218-0.688-0.324c-0.204-0.094-0.412-0.184-0.619-0.276c-0.234-0.104-0.467-0.208-0.705-0.31
			c-0.212-0.09-0.428-0.178-0.643-0.266c-0.239-0.098-0.477-0.198-0.721-0.294c-0.22-0.087-0.444-0.17-0.667-0.254
			c-0.245-0.093-0.488-0.187-0.736-0.277c-0.23-0.083-0.466-0.163-0.7-0.244c-0.247-0.086-0.493-0.173-0.744-0.256
			c-0.24-0.079-0.484-0.154-0.728-0.23c-0.254-0.08-0.505-0.161-0.763-0.238c-0.248-0.074-0.501-0.143-0.753-0.214
			c-0.259-0.073-0.516-0.148-0.78-0.219c-0.259-0.069-0.524-0.133-0.787-0.199c-0.264-0.066-0.525-0.134-0.792-0.197
			c-0.272-0.064-0.551-0.122-0.827-0.183c-0.266-0.058-0.529-0.119-0.799-0.174c-0.283-0.058-0.574-0.11-0.861-0.164
			c-0.272-0.051-0.54-0.105-0.816-0.153c-0.298-0.051-0.603-0.097-0.905-0.144c-0.273-0.043-0.542-0.089-0.819-0.129
			c-0.313-0.045-0.634-0.082-0.951-0.123c-0.276-0.035-0.548-0.074-0.828-0.105c-0.332-0.038-0.673-0.068-1.01-0.101
			c-0.273-0.027-0.542-0.057-0.818-0.081c-0.373-0.031-0.756-0.054-1.135-0.08c-0.25-0.017-0.496-0.038-0.749-0.052
			c-0.424-0.024-0.859-0.038-1.291-0.054c-0.218-0.008-0.431-0.021-0.651-0.027c-0.657-0.018-1.322-0.028-1.998-0.028
			c-21.778,0-33.399,9.584-42.736,17.285c-8.613,7.103-15.415,12.715-30.01,12.715c-0.979,0-1.939-0.034-2.888-0.086
			c-0.286-0.016-0.567-0.039-0.851-0.06c-0.683-0.049-1.357-0.111-2.024-0.187c-0.289-0.033-0.577-0.065-0.863-0.103
			c-0.768-0.103-1.525-0.223-2.27-0.363c-0.139-0.026-0.283-0.045-0.421-0.073c-0.876-0.173-1.734-0.375-2.577-0.599
			c-0.227-0.06-0.447-0.129-0.672-0.193c-0.624-0.178-1.24-0.368-1.846-0.575c-0.259-0.088-0.518-0.178-0.774-0.272
			c-0.615-0.225-1.219-0.466-1.813-0.721c-0.189-0.081-0.382-0.155-0.569-0.239c-0.064-0.029-0.123-0.063-0.187-0.092V195.063z
			 M20,431.052v-17.958h406.188c5.523,0,10-4.478,10-10s-4.477-10-10-10H20V281.127c0.32,0.089,0.647,0.167,0.97,0.251
			c0.367,0.096,0.732,0.197,1.102,0.286c0.317,0.076,0.64,0.141,0.959,0.213c0.392,0.087,0.78,0.18,1.176,0.26
			c0.3,0.061,0.604,0.111,0.906,0.167c0.421,0.079,0.84,0.162,1.266,0.233c0.286,0.047,0.577,0.085,0.866,0.129
			c0.446,0.068,0.889,0.14,1.339,0.199c0.303,0.04,0.612,0.069,0.917,0.105c0.441,0.051,0.879,0.107,1.324,0.15
			c0.339,0.033,0.684,0.054,1.025,0.082c0.416,0.034,0.83,0.073,1.25,0.1c0.442,0.028,0.89,0.043,1.335,0.063
			c0.325,0.015,0.647,0.036,0.975,0.046c0.776,0.025,1.558,0.037,2.345,0.037c21.778,0,33.399-9.584,42.736-17.285
			c8.613-7.103,15.416-12.715,30.01-12.715c14.597,0,21.403,5.61,30.019,12.713c0.589,0.486,1.189,0.978,1.794,1.473
			c0.135,0.111,0.269,0.219,0.405,0.33c0.618,0.503,1.246,1.008,1.885,1.513c0.128,0.101,0.257,0.202,0.385,0.303
			c0.663,0.521,1.337,1.041,2.029,1.558c0.063,0.047,0.129,0.094,0.192,0.141c0.66,0.49,1.335,0.976,2.024,1.457
			c0.111,0.077,0.219,0.155,0.331,0.232c0.711,0.491,1.442,0.972,2.189,1.447c0.153,0.097,0.307,0.194,0.462,0.291
			c0.76,0.474,1.537,0.94,2.338,1.391c0.118,0.066,0.239,0.13,0.358,0.196c0.788,0.437,1.595,0.862,2.427,1.271
			c0.086,0.042,0.168,0.086,0.254,0.128c0.863,0.419,1.758,0.818,2.673,1.202c0.105,0.044,0.201,0.094,0.307,0.138
			c16.285,37.822,54.05,62.921,95.424,62.921c41.378,0,79.143-25.1,95.428-62.93c0.097-0.04,0.185-0.086,0.281-0.127
			c0.927-0.389,1.833-0.793,2.707-1.218c0.071-0.035,0.139-0.071,0.209-0.106c0.85-0.418,1.674-0.852,2.478-1.299
			c0.108-0.06,0.218-0.118,0.325-0.178c0.809-0.456,1.592-0.926,2.359-1.404c0.146-0.091,0.291-0.182,0.436-0.274
			c0.754-0.479,1.491-0.966,2.209-1.461c0.101-0.07,0.2-0.141,0.301-0.211c0.703-0.491,1.392-0.986,2.065-1.486
			c0.054-0.04,0.109-0.08,0.163-0.12c0.698-0.521,1.377-1.046,2.046-1.571c0.121-0.095,0.242-0.19,0.363-0.285
			c0.647-0.511,1.282-1.022,1.907-1.53c0.122-0.099,0.241-0.197,0.362-0.296c0.616-0.503,1.225-1.004,1.824-1.497
			c8.617-7.103,15.424-12.713,30.021-12.713c14.596,0,21.399,5.611,30.013,12.715c9.338,7.701,20.959,17.285,42.738,17.285
			c0.788,0,1.57-0.012,2.347-0.037c0.256-0.008,0.507-0.025,0.761-0.036c0.518-0.022,1.038-0.041,1.551-0.074
			c0.3-0.019,0.594-0.049,0.892-0.071c0.463-0.035,0.928-0.067,1.386-0.111c0.31-0.03,0.615-0.07,0.923-0.105
			c0.441-0.049,0.883-0.093,1.32-0.15c0.327-0.043,0.65-0.097,0.975-0.145c0.411-0.06,0.824-0.115,1.232-0.183
			c0.363-0.06,0.72-0.132,1.08-0.199c0.363-0.067,0.729-0.128,1.089-0.201c0.391-0.079,0.775-0.171,1.162-0.257
			c0.323-0.072,0.65-0.138,0.971-0.216c0.413-0.099,0.819-0.211,1.227-0.318c0.282-0.074,0.568-0.142,0.848-0.22v149.929H20z
			 M492,259.884c-0.065,0.03-0.126,0.065-0.192,0.094c-0.185,0.083-0.376,0.156-0.562,0.236c-0.594,0.254-1.196,0.495-1.81,0.719
			c-0.262,0.096-0.527,0.188-0.793,0.279c-0.596,0.203-1.201,0.39-1.815,0.565c-0.235,0.067-0.465,0.139-0.702,0.202
			c-0.839,0.222-1.691,0.423-2.561,0.595c-0.154,0.03-0.314,0.052-0.47,0.081c-0.73,0.136-1.471,0.255-2.223,0.355
			c-0.292,0.039-0.587,0.072-0.882,0.106c-0.661,0.075-1.331,0.137-2.008,0.186c-0.286,0.02-0.571,0.044-0.86,0.06
			c-0.949,0.052-1.908,0.086-2.888,0.086c-14.596,0-21.399-5.611-30.013-12.715c-9.338-7.701-20.959-17.285-42.738-17.285
			c-0.676,0-1.342,0.009-1.998,0.028c-0.219,0.006-0.43,0.019-0.647,0.027c-0.433,0.016-0.868,0.03-1.293,0.054
			c-0.266,0.015-0.524,0.037-0.787,0.054c-0.367,0.025-0.736,0.047-1.097,0.077c-0.275,0.023-0.541,0.053-0.813,0.08
			c-0.341,0.033-0.684,0.064-1.02,0.102c-0.268,0.031-0.53,0.068-0.795,0.101c-0.329,0.042-0.66,0.081-0.984,0.127
			c-0.266,0.038-0.524,0.082-0.786,0.124c-0.314,0.049-0.63,0.096-0.939,0.15c-0.263,0.046-0.52,0.097-0.78,0.146
			c-0.3,0.056-0.602,0.11-0.897,0.17c-0.259,0.053-0.511,0.111-0.766,0.167c-0.287,0.063-0.577,0.124-0.86,0.19
			c-0.256,0.06-0.505,0.126-0.758,0.188c-0.275,0.069-0.552,0.136-0.822,0.208c-0.249,0.066-0.492,0.138-0.737,0.207
			c-0.266,0.075-0.534,0.148-0.797,0.227c-0.243,0.072-0.48,0.149-0.719,0.224c-0.258,0.081-0.518,0.16-0.772,0.244
			c-0.236,0.078-0.467,0.16-0.699,0.24c-0.249,0.086-0.5,0.171-0.745,0.26c-0.233,0.084-0.46,0.172-0.69,0.259
			c-0.239,0.09-0.479,0.18-0.714,0.272c-0.228,0.09-0.452,0.183-0.677,0.276c-0.229,0.094-0.46,0.187-0.686,0.284
			c-0.221,0.094-0.439,0.192-0.657,0.288c-0.224,0.099-0.449,0.198-0.67,0.299c-0.215,0.099-0.426,0.2-0.638,0.3
			c-0.217,0.103-0.435,0.205-0.648,0.31c-0.211,0.103-0.417,0.209-0.625,0.314c-0.209,0.106-0.419,0.211-0.626,0.319
			c-0.206,0.107-0.408,0.217-0.612,0.326c-0.202,0.109-0.405,0.217-0.605,0.327c-0.202,0.112-0.4,0.225-0.599,0.338
			c-0.195,0.111-0.39,0.221-0.583,0.333c-0.198,0.115-0.393,0.232-0.588,0.349c-0.189,0.113-0.378,0.226-0.565,0.34
			c-0.192,0.118-0.381,0.236-0.57,0.355c-0.184,0.115-0.368,0.23-0.55,0.347c-0.19,0.122-0.378,0.245-0.566,0.368
			c-0.175,0.115-0.35,0.229-0.522,0.344c-0.189,0.126-0.375,0.253-0.561,0.38c-0.168,0.115-0.337,0.23-0.504,0.345
			c-0.185,0.128-0.367,0.257-0.55,0.386c-0.163,0.115-0.326,0.23-0.487,0.346c-0.184,0.132-0.366,0.264-0.547,0.397
			c-0.154,0.113-0.309,0.225-0.461,0.338c-0.184,0.136-0.367,0.273-0.549,0.41c-0.147,0.111-0.294,0.221-0.44,0.332
			c-0.183,0.139-0.364,0.278-0.544,0.417c-0.14,0.107-0.279,0.215-0.418,0.323c-0.188,0.146-0.375,0.293-0.561,0.439
			c-0.125,0.099-0.25,0.197-0.374,0.295c-0.196,0.155-0.39,0.31-0.584,0.465c-0.11,0.088-0.221,0.177-0.33,0.265
			c-0.215,0.173-0.429,0.346-0.642,0.519c-0.074,0.061-0.149,0.121-0.223,0.181c-0.565,0.46-1.12,0.916-1.666,1.366
			c0.467-4.008,0.703-8.054,0.703-12.087c0.002-25.435-12.45-51.604-39.188-82.357c-0.379-0.437-0.763-0.874-1.148-1.313H450.57
			c22.457,0,41.43,18.515,41.43,40.43V259.884z"/>
	</g>
</g>
<g>
	<g>
		<path d="M140.8,303.98c-0.131-0.64-0.32-1.27-0.57-1.87c-0.25-0.609-0.56-1.189-0.92-1.729c-0.36-0.55-0.78-1.061-1.24-1.521
			c-0.46-0.46-0.97-0.88-1.52-1.239c-0.54-0.36-1.12-0.67-1.73-0.92c-0.6-0.25-1.23-0.44-1.87-0.57c-1.29-0.26-2.62-0.26-3.91,0
			c-0.63,0.13-1.26,0.32-1.87,0.57c-0.6,0.25-1.18,0.56-1.72,0.92c-0.55,0.359-1.06,0.779-1.52,1.239
			c-0.46,0.46-0.88,0.971-1.25,1.521c-0.36,0.54-0.67,1.12-0.92,1.729c-0.25,0.601-0.44,1.23-0.57,1.87
			c-0.13,0.641-0.19,1.301-0.19,1.95c0,0.65,0.06,1.311,0.19,1.96c0.13,0.63,0.33,1.26,0.58,1.87c0.25,0.6,0.56,1.18,0.92,1.72
			c0.36,0.551,0.78,1.06,1.24,1.521c0.46,0.46,0.97,0.88,1.52,1.25c0.54,0.359,1.12,0.67,1.72,0.92c0.61,0.25,1.24,0.439,1.87,0.57
			c0.65,0.13,1.31,0.189,1.96,0.189s1.31-0.06,1.95-0.189c0.64-0.131,1.27-0.32,1.87-0.57c0.61-0.25,1.19-0.561,1.73-0.92
			c0.55-0.37,1.06-0.79,1.52-1.25c0.46-0.46,0.88-0.97,1.24-1.521c0.36-0.54,0.67-1.12,0.92-1.72c0.25-0.61,0.44-1.24,0.57-1.87
			c0.13-0.649,0.2-1.31,0.2-1.96C141,305.281,140.93,304.62,140.8,303.98z"/>
	</g>
</g>
<g>
	<g>
		<path d="M186.079,352.139c-0.13-0.638-0.32-1.268-0.57-1.869c-0.25-0.6-0.56-1.18-0.92-1.72c-0.37-0.55-0.79-1.06-1.25-1.53
			c-2.32-2.319-5.78-3.39-9.02-2.73c-0.64,0.13-1.27,0.319-1.87,0.569c-0.61,0.25-1.19,0.561-1.73,0.921
			c-0.55,0.369-1.06,0.779-1.52,1.239c-0.46,0.471-0.88,0.98-1.24,1.53c-0.36,0.54-0.67,1.12-0.92,1.72
			c-0.25,0.601-0.44,1.23-0.57,1.87c-0.13,0.65-0.2,1.3-0.2,1.96c0,0.65,0.07,1.3,0.2,1.95c0.13,0.64,0.32,1.27,0.57,1.87
			c0.25,0.6,0.56,1.18,0.92,1.729c0.36,0.54,0.78,1.061,1.24,1.521c1.86,1.859,4.44,2.93,7.07,2.93s5.21-1.07,7.07-2.93
			c0.46-0.46,0.88-0.98,1.25-1.521c0.36-0.55,0.67-1.13,0.92-1.729c0.25-0.601,0.44-1.23,0.57-1.87c0.13-0.65,0.19-1.3,0.19-1.95
			C186.269,353.439,186.209,352.789,186.079,352.139z"/>
	</g>
</g>
<g>
	<g>
		<path d="M435.991,303.98c-0.13-0.64-0.32-1.27-0.57-1.87c-0.25-0.609-0.56-1.189-0.92-1.729c-0.36-0.55-0.78-1.061-1.24-1.521
			c-0.46-0.46-0.97-0.88-1.52-1.239c-0.54-0.36-1.12-0.67-1.73-0.92c-0.6-0.25-1.23-0.44-1.87-0.57c-1.29-0.26-2.62-0.26-3.91,0
			c-0.63,0.13-1.26,0.32-1.87,0.57c-0.6,0.25-1.18,0.56-1.72,0.92c-0.55,0.359-1.06,0.779-1.52,1.239
			c-0.46,0.46-0.88,0.971-1.25,1.521c-0.36,0.54-0.67,1.12-0.92,1.729c-0.25,0.601-0.44,1.23-0.57,1.87
			c-0.13,0.641-0.19,1.301-0.19,1.95c0,0.65,0.06,1.311,0.19,1.96c0.13,0.63,0.32,1.26,0.57,1.87c0.25,0.6,0.56,1.18,0.92,1.72
			c0.37,0.551,0.79,1.06,1.25,1.521c0.46,0.46,0.97,0.88,1.52,1.25c0.54,0.359,1.12,0.67,1.72,0.92c0.61,0.25,1.24,0.439,1.87,0.57
			c0.65,0.13,1.31,0.189,1.96,0.189c0.65,0,1.31-0.06,1.95-0.189c0.64-0.131,1.27-0.32,1.87-0.57c0.61-0.25,1.19-0.561,1.73-0.92
			c0.55-0.37,1.06-0.79,1.52-1.25c0.46-0.46,0.88-0.97,1.24-1.521c0.36-0.54,0.67-1.12,0.92-1.72c0.25-0.61,0.44-1.24,0.57-1.87
			c0.13-0.649,0.2-1.31,0.2-1.96C436.191,305.281,436.121,304.62,435.991,303.98z"/>
	</g>
</g>
<g>
	<g>
		<path d="M381.801,340.3c-0.131-0.639-0.32-1.269-0.57-1.87c-0.25-0.61-0.56-1.189-0.92-1.729c-0.36-0.551-0.78-1.061-1.24-1.521
			c-0.46-0.46-0.97-0.88-1.52-1.24c-0.54-0.359-1.12-0.67-1.73-0.92c-0.6-0.25-1.23-0.45-1.87-0.569c-1.29-0.261-2.62-0.261-3.91,0
			c-0.63,0.119-1.26,0.319-1.87,0.569c-0.6,0.25-1.18,0.561-1.72,0.92c-0.55,0.36-1.06,0.78-1.52,1.24
			c-0.46,0.46-0.88,0.97-1.25,1.521c-0.36,0.54-0.67,1.119-0.92,1.729c-0.25,0.601-0.44,1.23-0.57,1.87
			c-0.13,0.64-0.19,1.3-0.19,1.95c0,0.649,0.06,1.31,0.19,1.95c0.13,0.64,0.32,1.27,0.57,1.869c0.25,0.61,0.56,1.191,0.92,1.73
			c0.37,0.55,0.79,1.06,1.25,1.52c0.46,0.46,0.97,0.881,1.52,1.24c0.54,0.36,1.12,0.67,1.72,0.92c0.61,0.25,1.24,0.45,1.87,0.58
			c0.65,0.13,1.31,0.19,1.96,0.19c0.65,0,1.31-0.061,1.95-0.19c0.64-0.13,1.27-0.33,1.87-0.58c0.61-0.25,1.19-0.56,1.73-0.92
			c0.55-0.359,1.06-0.78,1.52-1.24c1.86-1.859,2.93-4.439,2.93-7.069C382.001,341.6,381.931,340.939,381.801,340.3z"/>
	</g>
</g>
<g>
	<g>
		<path d="M69.799,328.289c-0.131-0.639-0.32-1.269-0.57-1.869c-0.25-0.61-0.56-1.19-0.92-1.73c-0.36-0.55-0.78-1.06-1.24-1.52
			c-2.32-2.32-5.77-3.39-9.03-2.73c-0.63,0.13-1.26,0.32-1.87,0.57c-0.6,0.25-1.18,0.559-1.72,0.92c-0.55,0.36-1.06,0.78-1.52,1.24
			c-0.46,0.46-0.88,0.97-1.25,1.52c-0.36,0.54-0.67,1.12-0.92,1.73c-0.24,0.6-0.44,1.229-0.56,1.87c-0.13,0.64-0.2,1.3-0.2,1.95
			c0,0.659,0.07,1.31,0.2,1.96c0.12,0.63,0.32,1.26,0.57,1.869c0.25,0.601,0.55,1.181,0.91,1.721c0.37,0.55,0.79,1.06,1.25,1.52
			c0.46,0.46,0.97,0.88,1.52,1.25c0.54,0.36,1.12,0.67,1.72,0.92c0.61,0.25,1.24,0.44,1.87,0.57c0.65,0.13,1.31,0.19,1.96,0.19
			c2.63,0,5.21-1.061,7.07-2.931c0.46-0.46,0.88-0.97,1.24-1.52c0.36-0.54,0.67-1.12,0.92-1.721c0.25-0.609,0.44-1.239,0.57-1.869
			c0.13-0.65,0.2-1.301,0.2-1.96C69.999,329.589,69.929,328.928,69.799,328.289z"/>
	</g>
</g>
<g>
	<g>
		<path d="M471.451,400.9c-0.13-0.64-0.32-1.27-0.57-1.87c-0.25-0.609-0.56-1.19-0.92-1.73c-0.36-0.55-0.78-1.06-1.24-1.52
			c-1.86-1.859-4.44-2.92-7.07-2.92c-2.64,0-5.21,1.061-7.07,2.92c-0.46,0.461-0.88,0.971-1.25,1.52c-0.36,0.54-0.67,1.12-0.92,1.73
			c-0.25,0.601-0.44,1.23-0.57,1.87c-0.13,0.641-0.19,1.301-0.19,1.95c0,0.66,0.06,1.311,0.19,1.96c0.13,0.63,0.32,1.26,0.57,1.87
			c0.25,0.6,0.56,1.18,0.92,1.72c0.37,0.551,0.79,1.061,1.25,1.521c1.86,1.87,4.43,2.93,7.07,2.93c2.63,0,5.21-1.06,7.07-2.93
			c0.46-0.46,0.88-0.97,1.24-1.521c0.36-0.54,0.67-1.12,0.92-1.72c0.25-0.61,0.44-1.24,0.57-1.87c0.13-0.649,0.2-1.3,0.2-1.96
			C471.651,402.201,471.581,401.54,471.451,400.9z"/>
	</g>
</g>
<g>
</g>
<g>
</g>
<g>
</g>
<g>
</g>
<g>
</g>
<g>
</g>
<g>
</g>
<g>
</g>
<g>
</g>
<g>
</g>
<g>
</g>
<g>
</g>
<g>
</g>
<g>
</g>
<g>
</g>
</svg>
