<?xml version="1.0" encoding="iso-8859-1"?>
<!-- Generator: Adobe Illustrator 19.0.0, SVG Export Plug-In . SVG Version: 6.00 Build 0)  -->
<svg version="1.1" id="Layer_1" xmlns="http://www.w3.org/2000/svg" xmlns:xlink="http://www.w3.org/1999/xlink" x="0px" y="0px"
	 viewBox="0 0 512 512" style="enable-background:new 0 0 512 512;" xml:space="preserve">
<g>
	<g>
		<path d="M437.02,74.982C388.667,26.628,324.38,0,256,0S123.333,26.628,74.98,74.982C26.628,123.333,0,187.619,0,256
			s26.628,132.667,74.98,181.019C123.333,485.372,187.62,512,256,512s132.667-26.628,181.02-74.981
			C485.372,388.667,512,324.381,512,256S485.372,123.333,437.02,74.982z M256,491.602c-129.911,0-235.602-105.69-235.602-235.602
			S126.089,20.398,256,20.398S491.602,126.089,491.602,256S385.911,491.602,256,491.602z"/>
	</g>
</g>
<g>
	<g>
		<path d="M256,203.872c-28.743,0-52.128,23.385-52.128,52.128s23.385,52.128,52.128,52.128s52.128-23.385,52.128-52.128
			S284.743,203.872,256,203.872z M256,287.73c-17.496,0-31.73-14.234-31.73-31.73s14.234-31.73,31.73-31.73
			s31.73,14.234,31.73,31.73S273.496,287.73,256,287.73z"/>
	</g>
</g>
<g>
	<g>
		<path d="M256,49.417c-36.083,0-65.438,29.355-65.438,65.438c0,36.083,29.355,65.438,65.438,65.438
			c36.083,0,65.438-29.355,65.438-65.438C321.438,78.773,292.083,49.417,256,49.417z M256,159.895
			c-24.835,0-45.04-20.206-45.04-45.04s20.205-45.04,45.04-45.04s45.04,20.206,45.04,45.04S280.835,159.895,256,159.895z"/>
	</g>
</g>
<g>
	<g>
		<path d="M196.975,168.491c-4.524-16.884-15.352-30.995-30.49-39.734c-31.249-18.042-71.351-7.298-89.391,23.951
			c-8.74,15.138-11.062,32.773-6.538,49.657s15.352,30.995,30.49,39.734c10.28,5.935,21.514,8.755,32.61,8.755
			c22.631-0.002,44.675-11.738,56.781-32.706C199.177,203.01,201.5,185.375,196.975,168.491z M172.771,207.948
			c-12.419,21.508-40.02,28.902-61.527,16.485c-10.418-6.014-17.871-15.726-20.985-27.347c-3.113-11.622-1.516-23.759,4.5-34.179
			c8.334-14.433,23.503-22.511,39.081-22.511c7.635,0,15.37,1.942,22.444,6.026c10.419,6.014,17.872,15.726,20.986,27.347
			C180.384,185.391,178.787,197.528,172.771,207.948z"/>
	</g>
</g>
<g>
	<g>
		<path d="M190.438,293.852c-18.041-31.247-58.143-41.991-89.391-23.951c-15.139,8.739-25.967,22.85-30.491,39.734
			c-4.523,16.884-2.202,34.519,6.538,49.657c12.107,20.97,34.147,32.706,56.781,32.706c11.094-0.001,22.331-2.821,32.611-8.755
			c15.138-8.739,25.965-22.85,30.49-39.734C201.499,326.625,199.177,308.99,190.438,293.852z M177.272,338.23
			c-3.115,11.62-10.567,21.333-20.986,27.347c-21.508,12.417-49.108,5.023-61.526-16.485c-6.016-10.42-7.614-22.557-4.5-34.179
			c3.114-11.62,10.566-21.333,20.985-27.347c7.075-4.085,14.808-6.026,22.444-6.026c15.577,0,30.749,8.079,39.082,22.511
			C178.788,314.471,180.386,326.608,177.272,338.23z"/>
	</g>
</g>
<g>
	<g>
		<path d="M256,331.707c-36.083,0-65.438,29.355-65.438,65.438c0,36.083,29.355,65.438,65.438,65.438
			c36.083,0,65.438-29.355,65.438-65.438C321.438,361.062,292.083,331.707,256,331.707z M256,442.184
			c-24.835,0-45.04-20.206-45.04-45.04c0-24.834,20.205-45.04,45.04-45.04s45.04,20.206,45.04,45.04
			C301.04,421.979,280.835,442.184,256,442.184z"/>
	</g>
</g>
<g>
	<g>
		<path d="M441.444,309.636c-4.524-16.884-15.352-30.995-30.49-39.734c-31.247-18.04-71.349-7.298-89.391,23.951
			c-8.74,15.138-11.062,32.773-6.538,49.657c4.524,16.884,15.352,30.995,30.49,39.734c10.28,5.935,21.514,8.755,32.61,8.755
			c22.632-0.002,44.675-11.738,56.781-32.706C443.646,344.155,445.968,326.519,441.444,309.636z M417.24,349.092
			c-12.418,21.507-40.019,28.905-61.526,16.485c-10.419-6.014-17.872-15.726-20.986-27.347c-3.113-11.622-1.516-23.759,4.5-34.179
			c8.333-14.433,23.502-22.511,39.08-22.511c7.636,0,15.371,1.941,22.446,6.026c10.419,6.014,17.871,15.726,20.985,27.347
			C424.853,326.536,423.256,338.673,417.24,349.092z"/>
	</g>
</g>
<g>
	<g>
		<path d="M434.906,152.708c-18.041-31.247-58.142-41.993-89.391-23.951c-15.138,8.739-25.966,22.85-30.49,39.734
			c-4.523,16.884-2.202,34.519,6.538,49.657c12.107,20.97,34.147,32.706,56.78,32.706c11.094,0,22.332-2.821,32.61-8.755
			c15.139-8.739,25.967-22.85,30.49-39.734C445.967,185.481,443.646,167.845,434.906,152.708z M421.739,197.085
			c-3.114,11.62-10.566,21.333-20.985,27.347c-21.508,12.419-49.108,5.023-61.526-16.485c-6.016-10.419-7.614-22.557-4.5-34.179
			c3.115-11.62,10.567-21.333,20.986-27.347c7.075-4.085,14.807-6.026,22.444-6.026c15.577,0,30.749,8.079,39.08,22.511
			C423.255,173.326,424.853,185.463,421.739,197.085z"/>
	</g>
</g>
<g>
	<g>
		<path d="M335.021,458.684c-1.797-5.338-7.579-8.211-12.92-6.412c-5.731,1.929-11.615,3.623-17.49,5.036
			c-5.477,1.317-8.849,6.825-7.531,12.302c1.124,4.674,5.302,7.816,9.907,7.816c0.79,0,1.592-0.092,2.394-0.285
			c6.458-1.554,12.927-3.417,19.228-5.537C333.947,469.807,336.819,464.022,335.021,458.684z"/>
	</g>
</g>
<g>
	<g>
		<path d="M421.173,397.483c-4.102-3.86-10.556-3.668-14.418,0.433c-16.081,17.076-34.755,31.194-55.502,41.966
			c-5,2.595-6.948,8.752-4.353,13.751c1.815,3.498,5.375,5.502,9.061,5.502c1.583,0,3.189-0.369,4.691-1.148
			c22.788-11.83,43.296-27.335,60.953-46.086C425.467,407.8,425.274,401.346,421.173,397.483z"/>
	</g>
</g>
<g>
</g>
<g>
</g>
<g>
</g>
<g>
</g>
<g>
</g>
<g>
</g>
<g>
</g>
<g>
</g>
<g>
</g>
<g>
</g>
<g>
</g>
<g>
</g>
<g>
</g>
<g>
</g>
<g>
</g>
</svg>
