<svg id="Capa_1" xmlns="http://www.w3.org/2000/svg" viewBox="0 0 60 60"><style>.st0{fill:#eff1f5}</style><path class="st0" d="M57 4h-7V1c0-.6-.4-1-1-1h-7c-.6 0-1 .4-1 1v3H19V1c0-.6-.4-1-1-1h-7c-.6 0-1 .4-1 1v3H3c-.6 0-1 .4-1 1v54c0 .6.4 1 1 1h54c.6 0 1-.4 1-1V5c0-.6-.4-1-1-1zM43 2h5v6h-5V2zM12 2h5v6h-5V2zM4 6h6v3c0 .6.4 1 1 1h7c.6 0 1-.4 1-1V6h22v3c0 .6.4 1 1 1h7c.6 0 1-.4 1-1V6h6v9H4V6zm0 52V17h52v41H4z"/><path class="st0" d="M38 23H11v29h38V23H38zm-7 2h7v7h-7v-7zm7 16h-7v-7h7v7zm-16-7h7v7h-7v-7zm0-9h7v7h-7v-7zm-9 0h7v7h-7v-7zm0 9h7v7h-7v-7zm7 16h-7v-7h7v7zm9 0h-7v-7h7v7zm9 0h-7v-7h7v7zm9 0h-7v-7h7v7zm0-9h-7v-7h7v7zm0-16v7h-7v-7h7z"/></svg>