<svg id="Слой_1" xmlns="http://www.w3.org/2000/svg" viewBox="0 0 1297.2 413.2"><style>.st0,.st1{fill:#a4ddc6;stroke:#a4ddc6;stroke-width:9;stroke-miterlimit:10}.st1{fill:#fb6788;stroke:#fb6b8b}.st2{fill:#a5dec7}.st3{fill:#fc6789}.st4{fill:#fb6788}.st5{fill:#a4ddc6}</style><path class="st0" d="M405.4 54.5C383.7 32.9 355.1 21 324.5 21s-59.3 11.9-81 33.6l-11.3 11.3-11.5-11.5c-21.6-21.6-50.5-33.7-81.1-33.7-30.5 0-59.2 11.9-80.8 33.5-21.6 21.6-33.6 50.4-33.5 81 0 30.6 12 59.2 33.7 80.9l164.6 164.6c2.3 2.3 5.3 3.5 8.3 3.5 3 0 6-1.1 8.3-3.4l164.9-164.3c21.6-21.6 33.6-50.4 33.6-81 .1-30.6-11.7-59.3-33.3-81zm-16.9 145.2l-156.6 156L75.7 199.5c-17.2-17.2-26.6-40-26.6-64.2s9.4-47.1 26.6-64.1c17.1-17.1 39.9-26.6 64.1-26.6 24.3 0 47.1 9.5 64.3 26.6L223.8 91c4.6 4.6 12.1 4.6 16.7 0l19.6-19.6c17.2-17.2 40-26.6 64.2-26.6s47 9.5 64.1 26.6c17.2 17.2 26.6 40 26.6 64.2.2 24.2-9.3 46.9-26.5 64.1z"/><path class="st1" d="M380.7 76.4c-18.6-18.3-43.3-28.3-69.6-28.3-26.3 0-51 10.1-69.6 28.4l-9.7 9.6-9.9-9.7c-18.6-18.3-43.4-28.5-69.7-28.5-26.2 0-50.9 10.1-69.5 28.3-18.6 18.4-28.8 42.7-28.7 68.6 0 25.9 10.3 50.2 28.9 68.5l141.5 139.4c2 1.9 4.6 3 7.2 3s5.2-1 7.2-2.9l141.8-139.1c18.6-18.3 28.9-42.7 28.9-68.6 0-26-10.2-50.3-28.8-68.7zm-14.5 123L231.6 331.5 97.2 199.2c-14.8-14.5-22.9-33.8-22.9-54.4s8.1-39.9 22.8-54.3C111.8 76 131.4 68 152.2 68c20.9 0 40.5 8 55.3 22.6l17 16.8c4 3.9 10.4 3.9 14.4 0l16.9-16.6c14.8-14.5 34.4-22.6 55.2-22.6s40.4 8 55.2 22.5c14.8 14.5 22.8 33.8 22.8 54.4.1 20.5-8 39.8-22.8 54.3z"/><path class="st2" d="M545.9 22.3c16.5 0 31 1.8 43.4 5.4 12.4 3.6 22.7 8.8 31.1 15.5 8.3 6.7 14.6 15 18.8 24.7 4.2 9.7 6.3 20.7 6.3 32.9 0 11.9-2 22.8-6 32.6-4 9.9-10 18.3-17.8 25.4-7.9 7.1-17.6 12.6-29.3 16.5-11.6 3.9-25 5.9-40.1 5.9h-52.5V53.6c0-7.2-1-13-3-17.5-2-4.4-6.6-6.6-13.9-6.6h-2.4v-7.2h65.4zM549 32c-2.4 0-4.7.1-6.9.2-2.2.2-4.1.4-5.9.7-1.9.3-3.7.6-5.3.7V170c1.6.3 3.4.6 5.3 1 3.4.5 7.6.7 12.8.7h2.4c8.3 0 16.1-1.6 23.1-4.8 7.1-3.2 13.2-7.8 18.3-13.9 5.1-6 9.2-13.4 12-22 2.9-8.7 4.3-18.4 4.3-29.1 0-10.6-1.4-20.2-4.2-28.8-2.8-8.6-6.8-15.9-11.9-22-5.1-6.1-11.3-10.8-18.4-14.1-7.1-3.3-15.1-4.9-23.7-4.9H549zm113.7 92.7c0-8.2 1.3-15.9 4-23.1 2.6-7.2 6.5-13.5 11.4-18.8 5-5.3 11-9.5 18.2-12.5 7.1-3 15.2-4.6 24.2-4.6s17.1 1.5 24.2 4.6c7.1 3.1 13.2 7.2 18.2 12.5s8.8 11.6 11.4 18.8c2.6 7.2 4 14.9 4 23.1 0 8.2-1.3 15.9-4 23.1-2.6 7.2-6.5 13.5-11.4 18.8-5 5.3-11 9.5-18.2 12.5-7.1 3-15.2 4.6-24.2 4.6s-17.1-1.5-24.2-4.6c-7.1-3-13.2-7.2-18.2-12.5s-8.8-11.6-11.4-18.8c-2.7-7.2-4-14.9-4-23.1zm83.1 0c0-6.9-.5-13.3-1.6-19.2-1-5.9-2.6-11-4.7-15.3-2.1-4.3-4.7-7.7-7.9-10.1-3.2-2.4-6.9-3.6-11.1-3.6-4.2 0-7.9 1.2-11.1 3.6-3.2 2.4-5.9 5.8-7.9 10.1-2.1 4.3-3.7 9.4-4.7 15.3s-1.6 12.2-1.6 19.2c0 6.9.5 13.3 1.6 19.2 1 5.9 2.6 11 4.7 15.3 2.1 4.3 4.7 7.7 7.9 10.1 3.2 2.4 6.9 3.6 11.1 3.6 4.2 0 7.9-1.2 11.1-3.6 3.2-2.4 5.9-5.8 7.9-10.1 2.1-4.3 3.7-9.4 4.7-15.3 1.1-5.9 1.6-12.3 1.6-19.2zm91.5 9.4v47.2H806V99.4c0-7.2-1-13-3-17.5-2-4.4-6.6-6.6-13.9-6.6h-2.4v-7.2h28.9c4.2 0 7.7.5 10.5 1.6 2.8 1 5.1 2.8 6.7 5.2 1.7 2.4 2.8 5.6 3.5 9.6.6 4 1 9 1 14.9v22.9l29.1-35.7c2.4-2.9 4.8-5.5 7.1-7.8s4.8-4.3 7.5-5.9c2.6-1.6 5.6-2.8 8.9-3.6 3.3-.8 7-1.2 11.2-1.2h4.8v6.3c-4.8 0-9.2 1-13 2.9-3.9 1.9-7.5 5-11.1 9.2l-23.4 28.4 32 42.4c4.2 5.6 8.1 9.9 11.8 12.8 3.7 2.9 7.2 4.7 10.6 5.5v5.8c-1.3.6-3.6 1.2-7 1.7s-6.6.7-9.6.7c-6.7 0-13.1-1.4-19-4.2-5.9-2.8-11.6-7.8-16.9-15.1l-23-30.4zm111.3-55.2c-7.2 0-12.9 1.9-16.9 5.8-4 3.9-6 10.4-6 19.5h-7.2V87.4c0-2.4.3-4.8.8-7.1.6-2.3 1.5-4.4 2.8-6.1 1.3-1.8 3.1-3.2 5.4-4.3 2.3-1.1 5.3-1.7 9-1.7h87V79h-36.4v102.4h-31.3V78.9h-7.2zm82.4 45.8c0-8.2 1.3-15.9 4-23.1 2.7-7.2 6.5-13.5 11.4-18.8 5-5.3 11-9.5 18.2-12.5 7.1-3 15.2-4.6 24.2-4.6s17.1 1.5 24.2 4.6c7.1 3.1 13.2 7.2 18.2 12.5s8.8 11.6 11.4 18.8c2.7 7.2 4 14.9 4 23.1 0 8.2-1.3 15.9-4 23.1-2.6 7.2-6.5 13.5-11.4 18.8-5 5.3-11 9.5-18.2 12.5-7.1 3-15.2 4.6-24.2 4.6s-17.1-1.5-24.2-4.6c-7.1-3-13.2-7.2-18.2-12.5s-8.8-11.6-11.4-18.8c-2.7-7.2-4-14.9-4-23.1zm83.1 0c0-6.9-.5-13.3-1.6-19.2-1-5.9-2.6-11-4.7-15.3-2.1-4.3-4.7-7.7-7.9-10.1-3.2-2.4-6.9-3.6-11.1-3.6-4.2 0-7.9 1.2-11.1 3.6-3.2 2.4-5.9 5.8-7.9 10.1-2.1 4.3-3.7 9.4-4.7 15.3s-1.6 12.2-1.6 19.2c0 6.9.5 13.3 1.6 19.2 1 5.9 2.6 11 4.7 15.3 2.1 4.3 4.7 7.7 7.9 10.1 3.2 2.4 6.9 3.6 11.1 3.6 4.2 0 7.9-1.2 11.1-3.6 3.2-2.4 5.9-5.8 7.9-10.1 2.1-4.3 3.7-9.4 4.7-15.3 1.1-5.9 1.6-12.3 1.6-19.2zm118.3-59c8.3 0 15.7 1.5 22 4.6 6.3 3.1 11.6 7.2 15.9 12.5 4.3 5.3 7.4 11.6 9.5 18.8 2.1 7.2 3.1 14.9 3.1 23.1 0 8.2-1 15.9-3.1 23.1-2.1 7.2-5.3 13.5-9.6 18.8-4.3 5.3-9.8 9.5-16.3 12.5s-14.1 4.6-22.8 4.6c-4 0-7.5-.4-10.6-1.1-3.1-.7-5.7-1.6-7.9-2.5-2.6-1-4.8-2.2-6.7-3.6v50.6h-31.3V99.4c0-3.5-.2-6.8-.6-9.8-.4-3-1.2-5.5-2.3-7.7-1.1-2.2-2.8-3.8-5.1-4.9-2.3-1.1-5.1-1.7-8.7-1.7h-2.4v-7.2h23.8c5.5 0 9.8.7 12.9 2.2s5.6 4.1 7.3 7.9c1.4-1.3 3.2-2.6 5.2-4.1 2-1.4 4.3-2.8 7-4.1 2.7-1.3 5.7-2.3 9.2-3.1 3.5-.8 7.3-1.2 11.5-1.2zm-4.8 10.8c-6.1 0-11 1.1-14.7 3.4-3.7 2.3-6.6 4.4-8.7 6.5.2 1.1.4 2.3.7 3.4.3 1.1.6 2.3.7 3.6.2 1.3.2 2.8.2 4.6v67.7c1.8 1.4 3.7 2.6 5.8 3.6 1.8 1 3.9 1.8 6.4 2.5 2.5.7 5.3 1.1 8.3 1.1 4.5 0 8.3-1.2 11.3-3.6 3-2.4 5.5-5.8 7.5-10.1 1.9-4.3 3.3-9.4 4.1-15.3.8-5.9 1.2-12.2 1.2-19.2 0-6.9-.4-13.3-1.2-19.2-.8-5.9-2.1-11-4-15.3-1.8-4.3-4.2-7.7-7.1-10.1-2.8-2.4-6.3-3.6-10.5-3.6z"/><path class="st3" d="M614 377v10.8H499.6V260.1c0-7.2-1-13-3-17.5-2-4.4-6.6-6.6-13.9-6.6h-2.4v-7.2h28.9c4.2 0 7.7.5 10.5 1.6 2.8 1 5.1 2.8 6.7 5.2s2.8 5.6 3.5 9.6c.6 4 1 9 1 14.9V377H614zm57.6-104.8c15.7 0 27.9 4.2 36.5 12.5 8.6 8.4 12.9 21 12.9 38.1v65h-20.5l-8.4-10.8h-1.2c-1.8 2.6-4 4.8-6.7 6.7-2.3 1.8-5.2 3.3-8.9 4.6-3.7 1.3-8.1 1.9-13.2 1.9-13.3 0-23.5-3-30.5-9s-10.5-13.9-10.5-23.5c0-5.8 1-10.9 2.9-15.3s5.3-8.2 10.2-11.3c4.9-3.1 11.5-5.5 19.9-7.1 8.3-1.6 19-2.4 32-2.4h3.6c0-14.5-2-24.5-6-30.1-4-5.6-9.6-8.4-16.9-8.4-2.7 0-5.3.3-7.8.8-2.5.6-4.8 1.6-6.9 3.3-2.1 1.6-3.9 3.8-5.5 6.6s-2.9 6.5-3.9 11h-13.2c0-4.2.3-8.4.8-12.8.6-4.3 2.3-8.1 5.2-11.3 2.9-3.2 7.7-5.4 14.3-6.6 6.7-1.3 13.9-1.9 21.8-1.9zm18.1 60.2h-3.6c-11.6 0-19.9 2.1-24.9 6.3-5.1 4.2-7.6 10.6-7.6 19.2 0 6.8 1.4 12 4.2 15.5 2.8 3.5 6.6 5.2 11.4 5.2 3.7 0 6.8-.8 9.3-2.4 2.5-1.6 4.6-3.4 6.4-5.4 1.9-2.3 3.5-4.9 4.8-8v-30.4zm94.2 47c9 0 15.3-1.6 18.8-4.7s5.3-7 5.3-11.7c0-4.7-2.1-8.4-6.3-11.2-4.2-2.8-9.3-5.6-15.4-8.3l-12.5-5.3c-9.6-4.2-17.2-8.9-22.6-14.2-5.5-5.3-8.2-11.9-8.2-19.8 0-5.3 1.1-9.9 3.4-13.9 2.2-3.9 5.4-7.3 9.5-10s9-4.8 14.6-6.1c5.6-1.4 11.7-2 18.3-2 10 0 18.1.9 24.5 2.6 6.3 1.8 11.1 4.2 14.3 7.2 2.9 2.7 4.6 6.7 5.1 11.8.5 5.1.7 10.8.7 16.9H825c-1.3-7.7-4.4-14.3-9.4-19.6-5-5.4-12.3-8.1-21.9-8.1-7.2 0-12.4 1.6-15.7 4.7-3.2 3.1-4.8 7-4.8 11.7 0 4.3 1.5 7.8 4.6 10.5 3 2.6 7.2 5.1 12.5 7.3l14.5 6c11.1 4.7 19.4 9.5 25.1 14.6 5.6 5.1 8.4 11.8 8.4 20.4 0 5.3-1.2 9.9-3.7 13.9-2.5 3.9-5.9 7.3-10.2 10-4.3 2.7-9.5 4.8-15.5 6.1s-12.6 2-19.9 2c-10 0-18.1-.9-24.5-2.6-6.3-1.8-11.1-4.2-14.3-7.2-2.9-2.7-4.6-6.7-5.1-11.8-.5-5.1-.7-10.8-.7-16.9h8.4c1.3 7.7 4.4 14.3 9.4 19.6 4.7 5.4 12 8.1 21.7 8.1zm130.3 0c8.3 0 15.1-1.9 20.4-5.8 5.2-3.9 9.9-8.6 14.1-14.2l7.5 5.5c-1.8 2.7-3.9 5.6-6.4 8.6-2.5 3-5.5 5.7-9.2 8.2-3.6 2.5-7.9 4.5-12.8 6.1-4.9 1.6-10.6 2.4-17.2 2.4-8.5 0-16.2-1.5-23-4.5-6.8-3-12.6-7.1-17.5-12.4-4.8-5.3-8.5-11.5-11.1-18.7-2.6-7.1-3.9-15-3.9-23.5 0-9.6 1.4-18.1 4.1-25.5 2.7-7.4 6.5-13.5 11.2-18.4 4.7-4.9 10.3-8.6 16.7-11.2 6.4-2.6 13.4-3.9 21-3.9 7.5 0 14.5 1.2 21 3.5 6.4 2.3 12 5.6 16.7 9.8 4.7 4.2 8.5 9.2 11.2 15.2 2.7 5.9 4.1 12.5 4.1 19.8 0 1.8 0 3.6-.1 5.4-.1 1.8-.2 3.5-.4 4.9-.2 1.8-.3 3.4-.5 4.8h-72.5c0 15.9 2.4 27.2 7.3 33.8 5 6.7 11.4 10.1 19.3 10.1zm14.4-54.7c0-8-.5-14.7-1.6-20-1-5.3-2.5-9.6-4.2-12.8-1.8-3.2-3.9-5.5-6.4-6.9-2.5-1.4-5.3-2-8.3-2-2.7 0-5.3.7-7.8 2-2.5 1.4-4.7 3.7-6.5 6.9-1.8 3.2-3.3 7.5-4.5 12.8-1.1 5.3-1.7 12-1.7 20h41zm114.9-52.5c7.1 0 12.8 1.6 17.1 4.8 1.4 1 2.6 2.1 3.6 3.4 1 1.3 1.8 2.5 2.5 3.6s1.4 2.4 2 3.9l-12.3 9.4c-1.1-1.6-2.6-3.1-4.3-4.6-1.4-1.3-3.2-2.4-5.2-3.4s-4.4-1.4-7.1-1.4c-5.1 0-9.5.7-13 2.2-3.5 1.4-6.3 3.2-8.4 5.3.2 1.1.3 2.3.5 3.6.2 1.1.3 2.4.4 3.7.1 1.4.1 2.8.1 4.2v80.9h-31.3v-81.9c0-3.5-.2-6.8-.6-9.8-.4-3-1.2-5.5-2.3-7.7-1.1-2.2-2.8-3.8-5.1-4.9-2.3-1.1-5.1-1.7-8.7-1.7H969v-7.2h23.8c5.5 0 9.8.7 12.9 2 3.1 1.4 5.6 3.7 7.3 6.9 2.9-2.6 6.9-5.1 11.9-7.6 5.3-2.5 11.4-3.7 18.6-3.7z"/><path class="st2" d="M229.1 129.7c8.8 0 16.4 1 23 2.9 6.6 1.9 12 4.7 16.5 8.2 4.4 3.6 7.7 7.9 10 13.1 2.2 5.2 3.3 11 3.3 17.4 0 6.3-1.1 12.1-3.2 17.3-2.1 5.2-5.3 9.7-9.5 13.5-4.2 3.7-9.3 6.7-15.5 8.7-6.2 2.1-13.3 3.1-21.3 3.1h-27.8v-67.7c0-3.8-.5-6.9-1.6-9.3-1.1-2.3-3.5-3.5-7.3-3.5h-1.3v-3.8h34.7zm1.6 5.1c-1.3 0-2.5 0-3.6.1s-2.2.2-3.1.4c-1 .2-2 .3-2.8.4V208c.8.2 1.8.3 2.8.5 1.8.3 4 .4 6.8.4h1.3c4.4 0 8.5-.8 12.3-2.6 3.7-1.7 7-4.2 9.7-7.3 2.7-3.2 4.9-7.1 6.4-11.7s2.3-9.7 2.3-15.5c0-5.6-.7-10.7-2.2-15.3-1.5-4.6-3.6-8.4-6.3-11.7-2.7-3.2-6-5.7-9.8-7.5-3.8-1.7-8-2.6-12.6-2.6h-1.2z"/><path class="st4" d="M284.8 245.9v5.7h-60.7V184c0-3.8-.5-6.9-1.6-9.3-1.1-2.3-3.5-3.5-7.3-3.5h-1.3v-3.8h15.3c2.2 0 4.1.3 5.6.8 1.5.6 2.7 1.5 3.6 2.7.9 1.3 1.5 3 1.9 5.1.3 2.1.5 4.8.5 7.9v61.9h44z"/><path class="st5" d="M240.7 213.6l-16.6.3-.2-5.4 16.8-.9z"/></svg>