<?xml version="1.0" encoding="utf-8"?>
<!-- Generator: Adobe Illustrator 21.0.0, SVG Export Plug-In . SVG Version: 6.00 Build 0)  -->
<svg version="1.1" id="Слой_1" xmlns="http://www.w3.org/2000/svg" xmlns:xlink="http://www.w3.org/1999/xlink" x="0px" y="0px"
	 viewBox="0 0 1297.2 413.2" style="enable-background:new 0 0 1297.2 413.2;" xml:space="preserve">
<style type="text/css">
	.st0{fill:#FFFFFF;stroke:#FFFFFF;stroke-miterlimit:10;}
	.st1{fill:#FFFFFF;stroke:#FFFFFF;stroke-width:9;stroke-miterlimit:10;}
	.st2{fill:#FFFFFF;}
	.st3{fill:#A4DDC6;}
</style>
<g>
	<path class="st0" d="M405.4,54.5C383.7,32.9,355.1,21,324.5,21s-59.3,11.9-81,33.6l-11.3,11.3l-11.5-11.5
		c-21.6-21.6-50.5-33.7-81.1-33.7c-30.5,0-59.2,11.9-80.8,33.5s-33.6,50.4-33.5,81c0,30.6,12,59.2,33.7,80.9l164.6,164.6
		c2.3,2.3,5.3,3.5,8.3,3.5s6-1.1,8.3-3.4l164.9-164.3c21.6-21.6,33.6-50.4,33.6-81C438.8,104.9,427,76.2,405.4,54.5z M388.5,199.7
		l-156.6,156L75.7,199.5c-17.2-17.2-26.6-40-26.6-64.2s9.4-47.1,26.6-64.1c17.1-17.1,39.9-26.6,64.1-26.6c24.3,0,47.1,9.5,64.3,26.6
		L223.8,91c4.6,4.6,12.1,4.6,16.7,0l19.6-19.6c17.2-17.2,40-26.6,64.2-26.6s47,9.5,64.1,26.6c17.2,17.2,26.6,40,26.6,64.2
		C415.2,159.8,405.7,182.5,388.5,199.7z"/>
</g>
<g>
	<path class="st1" d="M391.4,63.7c-19.4-19.1-45.1-29.5-72.5-29.5c-27.4,0-53.1,10.5-72.5,29.6l-10.1,10l-10.3-10.1
		C206.6,44.6,180.7,34,153.3,34c-27.3,0-53,10.5-72.4,29.5C61.5,82.7,50.9,108,51,135c0,27,10.7,52.3,30.1,71.4l147.4,145.2
		c2.1,2,4.8,3.1,7.5,3.1c2.7,0,5.4-1,7.5-3l147.7-144.9c19.4-19.1,30.1-44.5,30.1-71.5C421.4,108.2,410.8,82.9,391.4,63.7z
		 M376.3,191.8L236,329.5L96,191.6c-15.4-15.1-23.9-35.2-23.9-56.7s8.4-41.6,23.8-56.6c15.3-15.1,35.7-23.4,57.4-23.4
		c21.8,0,42.2,8.3,57.6,23.5L228.6,96c4.2,4.1,10.8,4.1,15,0l17.6-17.3c15.4-15.1,35.8-23.5,57.5-23.5s42.1,8.3,57.5,23.4
		c15.4,15.1,23.8,35.2,23.8,56.7C400.1,156.6,391.7,176.7,376.3,191.8z"/>
</g>
<g>
	<path class="st2" d="M545.9,22.3c16.5,0,31,1.8,43.4,5.4s22.7,8.8,31.1,15.5c8.3,6.7,14.6,15,18.8,24.7s6.3,20.7,6.3,32.9
		c0,11.9-2,22.8-6,32.6c-4,9.9-10,18.3-17.8,25.4c-7.9,7.1-17.6,12.6-29.3,16.5c-11.6,3.9-25,5.9-40.1,5.9h-52.5V53.6
		c0-7.2-1-13-3-17.5c-2-4.4-6.6-6.6-13.9-6.6h-2.4v-7.2H545.9z M549,32c-2.4,0-4.7,0.1-6.9,0.2c-2.2,0.2-4.1,0.4-5.9,0.7
		c-1.9,0.3-3.7,0.6-5.3,0.7V170c1.6,0.3,3.4,0.6,5.3,1c3.4,0.5,7.6,0.7,12.8,0.7h2.4c8.3,0,16.1-1.6,23.1-4.8
		c7.1-3.2,13.2-7.8,18.3-13.9c5.1-6,9.2-13.4,12-22c2.9-8.7,4.3-18.4,4.3-29.1c0-10.6-1.4-20.2-4.2-28.8s-6.8-15.9-11.9-22
		c-5.1-6.1-11.3-10.8-18.4-14.1c-7.1-3.3-15.1-4.9-23.7-4.9H549V32z"/>
	<path class="st2" d="M662.7,124.7c0-8.2,1.3-15.9,4-23.1c2.6-7.2,6.5-13.5,11.4-18.8c5-5.3,11-9.5,18.2-12.5
		c7.1-3,15.2-4.6,24.2-4.6s17.1,1.5,24.2,4.6c7.1,3.1,13.2,7.2,18.2,12.5s8.8,11.6,11.4,18.8c2.6,7.2,4,14.9,4,23.1
		s-1.3,15.9-4,23.1c-2.6,7.2-6.5,13.5-11.4,18.8c-5,5.3-11,9.5-18.2,12.5c-7.1,3-15.2,4.6-24.2,4.6s-17.1-1.5-24.2-4.6
		c-7.1-3-13.2-7.2-18.2-12.5s-8.8-11.6-11.4-18.8C664,140.6,662.7,132.9,662.7,124.7z M745.8,124.7c0-6.9-0.5-13.3-1.6-19.2
		c-1-5.9-2.6-11-4.7-15.3c-2.1-4.3-4.7-7.7-7.9-10.1s-6.9-3.6-11.1-3.6c-4.2,0-7.9,1.2-11.1,3.6c-3.2,2.4-5.9,5.8-7.9,10.1
		c-2.1,4.3-3.7,9.4-4.7,15.3s-1.6,12.2-1.6,19.2c0,6.9,0.5,13.3,1.6,19.2c1,5.9,2.6,11,4.7,15.3c2.1,4.3,4.7,7.7,7.9,10.1
		c3.2,2.4,6.9,3.6,11.1,3.6c4.2,0,7.9-1.2,11.1-3.6c3.2-2.4,5.9-5.8,7.9-10.1c2.1-4.3,3.7-9.4,4.7-15.3
		C745.3,138,745.8,131.6,745.8,124.7z"/>
	<path class="st2" d="M837.3,134.1v47.2H806V99.4c0-7.2-1-13-3-17.5c-2-4.4-6.6-6.6-13.9-6.6h-2.4v-7.2h28.9c4.2,0,7.7,0.5,10.5,1.6
		c2.8,1,5.1,2.8,6.7,5.2c1.7,2.4,2.8,5.6,3.5,9.6c0.6,4,1,9,1,14.9v22.9l29.1-35.7c2.4-2.9,4.8-5.5,7.1-7.8s4.8-4.3,7.5-5.9
		c2.6-1.6,5.6-2.8,8.9-3.6c3.3-0.8,7-1.2,11.2-1.2h4.8v6.3c-4.8,0-9.2,1-13,2.9c-3.9,1.9-7.5,5-11.1,9.2l-23.4,28.4l32,42.4
		c4.2,5.6,8.1,9.9,11.8,12.8c3.7,2.9,7.2,4.7,10.6,5.5v5.8c-1.3,0.6-3.6,1.2-7,1.7s-6.6,0.7-9.6,0.7c-6.7,0-13.1-1.4-19-4.2
		s-11.6-7.8-16.9-15.1L837.3,134.1z"/>
	<path class="st2" d="M948.6,78.9c-7.2,0-12.9,1.9-16.9,5.8s-6,10.4-6,19.5h-7.2V87.4c0-2.4,0.3-4.8,0.8-7.1
		c0.6-2.3,1.5-4.4,2.8-6.1c1.3-1.8,3.1-3.2,5.4-4.3c2.3-1.1,5.3-1.7,9-1.7h87V79h-36.4v102.4h-31.3V78.9H948.6z"/>
	<path class="st2" d="M1031,124.7c0-8.2,1.3-15.9,4-23.1s6.5-13.5,11.4-18.8c5-5.3,11-9.5,18.2-12.5c7.1-3,15.2-4.6,24.2-4.6
		s17.1,1.5,24.2,4.6s13.2,7.2,18.2,12.5s8.8,11.6,11.4,18.8c2.7,7.2,4,14.9,4,23.1s-1.3,15.9-4,23.1c-2.6,7.2-6.5,13.5-11.4,18.8
		c-5,5.3-11,9.5-18.2,12.5c-7.1,3-15.2,4.6-24.2,4.6s-17.1-1.5-24.2-4.6c-7.1-3-13.2-7.2-18.2-12.5s-8.8-11.6-11.4-18.8
		C1032.3,140.6,1031,132.9,1031,124.7z M1114.1,124.7c0-6.9-0.5-13.3-1.6-19.2c-1-5.9-2.6-11-4.7-15.3s-4.7-7.7-7.9-10.1
		c-3.2-2.4-6.9-3.6-11.1-3.6s-7.9,1.2-11.1,3.6s-5.9,5.8-7.9,10.1c-2.1,4.3-3.7,9.4-4.7,15.3s-1.6,12.2-1.6,19.2
		c0,6.9,0.5,13.3,1.6,19.2c1,5.9,2.6,11,4.7,15.3s4.7,7.7,7.9,10.1c3.2,2.4,6.9,3.6,11.1,3.6s7.9-1.2,11.1-3.6
		c3.2-2.4,5.9-5.8,7.9-10.1c2.1-4.3,3.7-9.4,4.7-15.3C1113.6,138,1114.1,131.6,1114.1,124.7z"/>
	<path class="st2" d="M1232.4,65.7c8.3,0,15.7,1.5,22,4.6s11.6,7.2,15.9,12.5s7.4,11.6,9.5,18.8s3.1,14.9,3.1,23.1s-1,15.9-3.1,23.1
		s-5.3,13.5-9.6,18.8c-4.3,5.3-9.8,9.5-16.3,12.5s-14.1,4.6-22.8,4.6c-4,0-7.5-0.4-10.6-1.1c-3.1-0.7-5.7-1.6-7.9-2.5
		c-2.6-1-4.8-2.2-6.7-3.6v50.6h-31.3V99.4c0-3.5-0.2-6.8-0.6-9.8s-1.2-5.5-2.3-7.7c-1.1-2.2-2.8-3.8-5.1-4.9
		c-2.3-1.1-5.1-1.7-8.7-1.7h-2.4v-7.2h23.8c5.5,0,9.8,0.7,12.9,2.2s5.6,4.1,7.3,7.9c1.4-1.3,3.2-2.6,5.2-4.1c2-1.4,4.3-2.8,7-4.1
		c2.7-1.3,5.7-2.3,9.2-3.1C1224.4,66.1,1228.2,65.7,1232.4,65.7z M1227.6,76.5c-6.1,0-11,1.1-14.7,3.4s-6.6,4.4-8.7,6.5
		c0.2,1.1,0.4,2.3,0.7,3.4c0.3,1.1,0.6,2.3,0.7,3.6c0.2,1.3,0.2,2.8,0.2,4.6v67.7c1.8,1.4,3.7,2.6,5.8,3.6c1.8,1,3.9,1.8,6.4,2.5
		s5.3,1.1,8.3,1.1c4.5,0,8.3-1.2,11.3-3.6c3-2.4,5.5-5.8,7.5-10.1c1.9-4.3,3.3-9.4,4.1-15.3c0.8-5.9,1.2-12.2,1.2-19.2
		c0-6.9-0.4-13.3-1.2-19.2c-0.8-5.9-2.1-11-4-15.3c-1.8-4.3-4.2-7.7-7.1-10.1C1235.3,77.7,1231.8,76.5,1227.6,76.5z"/>
	<path class="st2" d="M614,377v10.8H499.6V260.1c0-7.2-1-13-3-17.5c-2-4.4-6.6-6.6-13.9-6.6h-2.4v-7.2h28.9c4.2,0,7.7,0.5,10.5,1.6
		c2.8,1,5.1,2.8,6.7,5.2s2.8,5.6,3.5,9.6c0.6,4,1,9,1,14.9V377H614z"/>
	<path class="st2" d="M671.6,272.2c15.7,0,27.9,4.2,36.5,12.5c8.6,8.4,12.9,21,12.9,38.1v65h-20.5l-8.4-10.8h-1.2
		c-1.8,2.6-4,4.8-6.7,6.7c-2.3,1.8-5.2,3.3-8.9,4.6c-3.7,1.3-8.1,1.9-13.2,1.9c-13.3,0-23.5-3-30.5-9s-10.5-13.9-10.5-23.5
		c0-5.8,1-10.9,2.9-15.3s5.3-8.2,10.2-11.3c4.9-3.1,11.5-5.5,19.9-7.1c8.3-1.6,19-2.4,32-2.4h3.6c0-14.5-2-24.5-6-30.1
		s-9.6-8.4-16.9-8.4c-2.7,0-5.3,0.3-7.8,0.8c-2.5,0.6-4.8,1.6-6.9,3.3c-2.1,1.6-3.9,3.8-5.5,6.6c-1.6,2.8-2.9,6.5-3.9,11h-13.2
		c0-4.2,0.3-8.4,0.8-12.8c0.6-4.3,2.3-8.1,5.2-11.3c2.9-3.2,7.7-5.4,14.3-6.6C656.5,272.8,663.7,272.2,671.6,272.2z M689.7,332.4
		h-3.6c-11.6,0-19.9,2.1-24.9,6.3c-5.1,4.2-7.6,10.6-7.6,19.2c0,6.8,1.4,12,4.2,15.5s6.6,5.2,11.4,5.2c3.7,0,6.8-0.8,9.3-2.4
		s4.6-3.4,6.4-5.4c1.9-2.3,3.5-4.9,4.8-8L689.7,332.4L689.7,332.4z"/>
	<path class="st2" d="M783.9,379.4c9,0,15.3-1.6,18.8-4.7s5.3-7,5.3-11.7s-2.1-8.4-6.3-11.2c-4.2-2.8-9.3-5.6-15.4-8.3l-12.5-5.3
		c-9.6-4.2-17.2-8.9-22.6-14.2c-5.5-5.3-8.2-11.9-8.2-19.8c0-5.3,1.1-9.9,3.4-13.9c2.2-3.9,5.4-7.3,9.5-10s9-4.8,14.6-6.1
		c5.6-1.4,11.7-2,18.3-2c10,0,18.1,0.9,24.5,2.6c6.3,1.8,11.1,4.2,14.3,7.2c2.9,2.7,4.6,6.7,5.1,11.8c0.5,5.1,0.7,10.8,0.7,16.9H825
		c-1.3-7.7-4.4-14.3-9.4-19.6c-5-5.4-12.3-8.1-21.9-8.1c-7.2,0-12.4,1.6-15.7,4.7c-3.2,3.1-4.8,7-4.8,11.7c0,4.3,1.5,7.8,4.6,10.5
		c3,2.6,7.2,5.1,12.5,7.3l14.5,6c11.1,4.7,19.4,9.5,25.1,14.6c5.6,5.1,8.4,11.8,8.4,20.4c0,5.3-1.2,9.9-3.7,13.9
		c-2.5,3.9-5.9,7.3-10.2,10s-9.5,4.8-15.5,6.1s-12.6,2-19.9,2c-10,0-18.1-0.9-24.5-2.6c-6.3-1.8-11.1-4.2-14.3-7.2
		c-2.9-2.7-4.6-6.7-5.1-11.8c-0.5-5.1-0.7-10.8-0.7-16.9h8.4c1.3,7.7,4.4,14.3,9.4,19.6C766.9,376.7,774.2,379.4,783.9,379.4z"/>
	<path class="st2" d="M914.2,379.4c8.3,0,15.1-1.9,20.4-5.8c5.2-3.9,9.9-8.6,14.1-14.2l7.5,5.5c-1.8,2.7-3.9,5.6-6.4,8.6
		s-5.5,5.7-9.2,8.2c-3.6,2.5-7.9,4.5-12.8,6.1c-4.9,1.6-10.6,2.4-17.2,2.4c-8.5,0-16.2-1.5-23-4.5s-12.6-7.1-17.5-12.4
		c-4.8-5.3-8.5-11.5-11.1-18.7c-2.6-7.1-3.9-15-3.9-23.5c0-9.6,1.4-18.1,4.1-25.5c2.7-7.4,6.5-13.5,11.2-18.4s10.3-8.6,16.7-11.2
		s13.4-3.9,21-3.9c7.5,0,14.5,1.2,21,3.5c6.4,2.3,12,5.6,16.7,9.8c4.7,4.2,8.5,9.2,11.2,15.2c2.7,5.9,4.1,12.5,4.1,19.8
		c0,1.8,0,3.6-0.1,5.4s-0.2,3.5-0.4,4.9c-0.2,1.8-0.3,3.4-0.5,4.8h-72.5c0,15.9,2.4,27.2,7.3,33.8
		C899.9,376,906.3,379.4,914.2,379.4z M928.6,324.7c0-8-0.5-14.7-1.6-20c-1-5.3-2.5-9.6-4.2-12.8c-1.8-3.2-3.9-5.5-6.4-6.9
		s-5.3-2-8.3-2c-2.7,0-5.3,0.7-7.8,2c-2.5,1.4-4.7,3.7-6.5,6.9c-1.8,3.2-3.3,7.5-4.5,12.8c-1.1,5.3-1.7,12-1.7,20H928.6z"/>
	<path class="st2" d="M1043.5,272.2c7.1,0,12.8,1.6,17.1,4.8c1.4,1,2.6,2.1,3.6,3.4s1.8,2.5,2.5,3.6s1.4,2.4,2,3.9l-12.3,9.4
		c-1.1-1.6-2.6-3.1-4.3-4.6c-1.4-1.3-3.2-2.4-5.2-3.4s-4.4-1.4-7.1-1.4c-5.1,0-9.5,0.7-13,2.2c-3.5,1.4-6.3,3.2-8.4,5.3
		c0.2,1.1,0.3,2.3,0.5,3.6c0.2,1.1,0.3,2.4,0.4,3.7c0.1,1.4,0.1,2.8,0.1,4.2v80.9h-31.3v-81.9c0-3.5-0.2-6.8-0.6-9.8
		c-0.4-3-1.2-5.5-2.3-7.7s-2.8-3.8-5.1-4.9s-5.1-1.7-8.7-1.7H969v-7.2h23.8c5.5,0,9.8,0.7,12.9,2c3.1,1.4,5.6,3.7,7.3,6.9
		c2.9-2.6,6.9-5.1,11.9-7.6C1030.2,273.4,1036.3,272.2,1043.5,272.2z"/>
</g>
<g>
	<path class="st2" d="M229.1,129.7c8.8,0,16.4,1,23,2.9s12,4.7,16.5,8.2c4.4,3.6,7.7,7.9,10,13.1c2.2,5.2,3.3,11,3.3,17.4
		c0,6.3-1.1,12.1-3.2,17.3s-5.3,9.7-9.5,13.5c-4.2,3.7-9.3,6.7-15.5,8.7c-6.2,2.1-13.3,3.1-21.3,3.1h-27.8v-67.7
		c0-3.8-0.5-6.9-1.6-9.3c-1.1-2.3-3.5-3.5-7.3-3.5h-1.3v-3.8h34.7V129.7z M230.7,134.8c-1.3,0-2.5,0-3.6,0.1s-2.2,0.2-3.1,0.4
		c-1,0.2-2,0.3-2.8,0.4V208c0.8,0.2,1.8,0.3,2.8,0.5c1.8,0.3,4,0.4,6.8,0.4h1.3c4.4,0,8.5-0.8,12.3-2.6c3.7-1.7,7-4.2,9.7-7.3
		c2.7-3.2,4.9-7.1,6.4-11.7c1.5-4.6,2.3-9.7,2.3-15.5c0-5.6-0.7-10.7-2.2-15.3s-3.6-8.4-6.3-11.7c-2.7-3.2-6-5.7-9.8-7.5
		c-3.8-1.7-8-2.6-12.6-2.6h-1.2V134.8z"/>
</g>
<g>
	<path class="st2" d="M284.8,245.9v5.7h-60.7V184c0-3.8-0.5-6.9-1.6-9.3c-1.1-2.3-3.5-3.5-7.3-3.5h-1.3v-3.8h15.3
		c2.2,0,4.1,0.3,5.6,0.8c1.5,0.6,2.7,1.5,3.6,2.7c0.9,1.3,1.5,3,1.9,5.1c0.3,2.1,0.5,4.8,0.5,7.9v61.9h44V245.9z"/>
</g>
<path class="st3" d="M224.4,208.8"/>
</svg>
