<svg xmlns="http://www.w3.org/2000/svg" viewBox="0 0 485.526 485.526"><path d="M358.267 224.486c-1.952-3.968-6.74-5.608-10.708-3.652a8 8 0 0 0-3.652 10.708c17.676 35.988 26.64 67.232 26.64 92.868 0 77.812-63.304 141.116-141.116 141.116S88.315 402.222 88.315 324.41c0-95.384 114.9-226.412 142.516-256.524a890.036 890.036 0 0 1 17.912 21.188c2.808 3.42 7.848 3.92 11.26 1.112 3.416-2.804 3.916-7.844 1.112-11.26-14.308-17.436-23.828-27.884-24.228-28.32a8.022 8.022 0 0 0-5.796-2.604c-2.172.052-4.328.856-5.864 2.444C218.983 56.91 72.319 210.082 72.319 324.41c0 86.632 70.484 157.116 157.116 157.116 86.636 0 157.116-70.484 157.112-157.116 0-28.1-9.516-61.72-28.28-99.924z"/><path d="M329.679 6.27a8 8 0 0 0-11.084-.076c-3.412 3.236-83.612 79.96-83.612 143.816 0 49.14 39.976 89.116 89.116 89.116s89.116-39.976 89.112-89.116c0-61.636-80.12-140.416-83.532-143.74zm-5.576 216.856c-40.316 0-73.116-32.8-73.116-73.116 0-47.94 55.096-108.264 73.044-126.644 17.9 18.748 73.184 80.4 73.188 126.644 0 40.316-32.8 73.116-73.116 73.116z"/><path d="M417.207 150.006c0-63.3-81.28-143.228-84.74-146.6a12 12 0 0 0-15.1-1.344c-1.672 1.128-37.016 25.34-62.36 64.608-11.004-12.944-16.716-18.776-17.02-19.084-2.276-2.316-5.364-3.652-8.64-3.584a11.996 11.996 0 0 0-8.588 3.708c-6.224 6.512-152.44 160.812-152.44 276.7 0 88.84 72.276 161.116 161.116 161.116s161.116-72.276 161.108-161.12c0-27.18-6.78-54.508-21.824-87.348 29.084-15.932 48.488-49.884 48.488-87.052zm-187.768 311.52c-75.608 0-137.116-61.512-137.116-137.116 0-90.94 105.688-215.596 137.1-250.632 4.376 4.964 10.412 12 18.052 21.344a11.974 11.974 0 0 0 10.536 4.34 12.001 12.001 0 0 0 9.412-6.424c16.152-31.232 42.424-54.692 55.496-65.128 24.724 26.036 70.3 82.256 70.3 122.1 0 31.568-18.724 60.908-44.516 69.764a11.996 11.996 0 0 0-6.856 16.68c17.088 34.484 24.708 61.612 24.708 87.956 0 75.608-61.508 137.116-137.116 137.116z"/><path d="M322.987 124.002c-4.4 0-8 5.4-8 12v24c0 6.6 3.6 12 8 12s8-5.4 8-12v-24c0-6.6-3.6-12-8-12z"/><path d="M334.987 140.002h-24c-6.6 0-12 3.6-12 8s5.4 8 12 8h24c6.6 0 12-3.6 12-8s-5.4-8-12-8zm-69.1 155.68c-4.952-4.952-11.532-7.68-18.536-7.68-6.156 0-11.984 2.108-16.672 5.98-4.68-3.872-10.512-5.98-16.668-5.98-7 0-13.584 2.728-18.532 7.676-10.22 10.224-10.22 26.852 0 37.072l29.548 29.548a7.968 7.968 0 0 0 5.656 2.344 7.98 7.98 0 0 0 5.656-2.34l29.548-29.548c10.22-10.224 10.22-26.852 0-37.072zm-11.316 25.756l-23.888 23.892-23.892-23.892c-3.984-3.98-3.984-10.46 0-14.444a10.145 10.145 0 0 1 7.22-2.992c2.732 0 5.296 1.064 7.224 2.996l3.792 3.788c3.124 3.12 8.192 3.12 11.312-.004l3.788-3.788c3.86-3.856 10.588-3.856 14.444 0 3.984 3.98 3.984 10.46 0 14.444z"/></svg>