<svg xmlns="http://www.w3.org/2000/svg" viewBox="0 0 59.999 59.999"><path d="M44.614 5.299C41.095 1.552 36.202-.217 30.058.021c-9.424.361-15.675 3.218-18.582 8.49-4.137 7.505.86 16.323 1.076 16.695 1.274 2.204 4.111 2.962 6.322 1.696 2.213-1.268 2.988-4.106 1.729-6.328-.683-1.204-2.329-5.183-.983-7.596 1.197-2.149 5.03-3.456 10.792-3.678 3.403-.129 5.826.646 7.431 2.355 3.254 3.465 3.307 10.382 2.777 15.573-.76 7.466-3.67 14.163-8.414 19.368-.403.443-.783.665-1.16.68-.831.014-1.887-.951-2.722-1.741-.762-.72-1.42-1.342-2.165-1.514-.929-.212-1.751.24-2.412.604-.31.169-.833.456-.978.394-.016-.006-.399-.177-.848-1.638a4.635 4.635 0 0 0-2.614-2.91 4.634 4.634 0 0 0-3.89.111c-.375.172-.667.524-.977 1.181-1.152 2.449-1.014 5.356.37 7.776 2.428 4.247 6.014 9.466 9.313 10.206.744.167 1.51.252 2.274.252 4.088 0 8.351-2.404 12.671-7.145 6.096-6.686 9.826-15.221 10.79-24.683 1.055-10.346-.709-18.041-5.244-22.87zm3.256 22.669C46.951 37 43.396 45.14 37.592 51.506c-4.617 5.068-9.02 7.188-13.029 6.289-1.989-.446-4.911-3.817-8.015-9.247-1.061-1.855-1.172-4.072-.297-5.933.068-.144.118-.232.15-.285a2.62 2.62 0 0 1 2.119-.021c.718.308 1.26.912 1.489 1.659.5 1.628 1.138 2.551 2.007 2.904 1.031.418 1.989-.108 2.691-.493.345-.189.804-.454 1.005-.408.231.067.837.64 1.237 1.019 1.081 1.021 2.421 2.287 4.053 2.287.039 0 .078 0 .118-.002.928-.034 1.79-.482 2.563-1.33 5.035-5.524 8.121-12.617 8.926-20.513.57-5.606.46-13.131-3.31-17.146-2.023-2.155-4.956-3.142-8.963-2.984-6.677.257-10.87 1.839-12.465 4.702-1.736 3.115-.111 7.612.99 9.556a2.654 2.654 0 0 1-.982 3.606 2.647 2.647 0 0 1-3.597-.962c-.192-.332-4.654-8.201-1.056-14.729 2.544-4.614 8.232-7.124 16.908-7.457 5.53-.216 9.916 1.345 13.02 4.649 4.122 4.388 5.708 11.555 4.716 21.301z"/><path d="M23.8 35c-1.437.051-2.527.744-2.92 1.853-.364 1.028-.028 2.154.874 2.94.467.405 1.45 1.02 3.129 1.02 1.344 0 3.134-.394 5.46-1.602 4.193-2.178 6.581-5.319 6.549-8.619-.033-3.428-2.563-6.559-7.121-8.814-.901-.446-1.851-.677-2.743-.859A4.01 4.01 0 0 1 23.836 17c0-2.206 1.794-4 4-4a1 1 0 1 0 0-2c-3.309 0-6 2.691-6 6 0 2.838 2.016 5.311 4.791 5.878.761.156 1.56.348 2.258.693 3.849 1.904 5.982 4.405 6.008 7.041.024 2.52-1.97 5.007-5.471 6.824-3.389 1.76-5.541 1.556-6.354.849-.271-.235-.386-.527-.303-.764.107-.302.53-.502 1.07-.521 2.206 0 4-1.794 4-4s-1.794-4-4-4a1 1 0 1 0 0 2c1.103 0 2 .897 2 2s-.897 1.999-2.035 2z"/></svg>