<svg xmlns="http://www.w3.org/2000/svg" viewBox="0 0 480 480"><path d="M456 112h-16V72c0-13.232-10.768-24-24-24h-32c-13.232 0-24 10.768-24 24v64h-18.832l-1.76-4.48c-8.48-21.576-28.936-35.52-52.12-35.52h-.76c-3.312-9.288-12.112-16-22.528-16-6.168 0-11.744 2.408-16 6.24-4.256-3.84-9.832-6.24-16-6.24-6.168 0-11.744 2.408-16 6.24-4.256-3.84-9.832-6.24-16-6.24-6.168 0-11.744 2.408-16 6.24-4.256-3.84-9.832-6.24-16-6.24-13.232 0-24 10.768-24 24v32h-24V72c0-13.232-10.768-24-24-24H64c-13.232 0-24 10.768-24 24v40H24c-13.232 0-24 10.768-24 24v80c0 13.232 10.768 24 24 24h16v40c0 13.232 10.768 24 24 24h32c13.232 0 24-10.768 24-24v-64h18.144l6.232 19.72c.28.896.72 1.736 1.296 2.488l21.352 27.624-13.68 143.728a20.504 20.504 0 0 0 5.232 15.736A20.562 20.562 0 0 0 173.744 432h108.448c5.784 0 11.32-2.456 15.192-6.744a20.533 20.533 0 0 0 5.2-15.8l-13.976-139.768a4.473 4.473 0 0 1 1.544-3.856l43.896-37.624c3.84-3.296 6.536-7.552 8.176-12.208H360v64c0 13.232 10.768 24 24 24h32c13.232 0 24-10.768 24-24v-40h16c13.232 0 24-10.768 24-24v-80c0-13.232-10.768-24-24-24zM40 224H24c-4.416 0-8-3.592-8-8v-80c0-4.408 3.584-8 8-8h16v96zm64-80v136c0 4.408-3.584 8-8 8H64c-4.416 0-8-3.592-8-8V72c0-4.408 3.584-8 8-8h32c4.416 0 8 3.592 8 8v72zm152-40c0-4.408 3.584-8 8-8s8 3.592 8 8v47.144c0 3.04-1.488 5.784-3.648 7.384-.232.16-.448.336-.696.472-.424.248-.888.384-1.352.528a7.417 7.417 0 0 1-1.584.32 8.38 8.38 0 0 1-1.904-.096c-.464-.072-.928-.128-1.36-.272-.64-.216-1.232-.568-1.808-.952-.344-.232-.72-.408-1.024-.688-.568-.52-.984-1.16-1.376-1.808-.168-.28-.408-.504-.544-.808-.44-1-.704-2.096-.704-3.224v-48zm-32 0c0-4.408 3.584-8 8-8s8 3.592 8 8v48c0 4.408-3.584 8-8 8s-8-3.592-8-8v-48zm-32 0c0-4.408 3.584-8 8-8s8 3.592 8 8v48c0 4.408-3.584 8-8 8s-8-3.592-8-8v-48zm-32 40v-40c0-4.408 3.584-8 8-8s8 3.592 8 8v48a7.967 7.967 0 0 1-.712 3.232c-.136.304-.376.528-.544.808-.392.648-.808 1.28-1.376 1.808-.296.272-.672.456-1.008.68-.584.384-1.176.744-1.832.96-.416.144-.872.192-1.312.264-.64.096-1.28.152-1.944.096a7.272 7.272 0 0 1-1.568-.32c-.472-.152-.936-.288-1.368-.536-.248-.128-.456-.304-.68-.464-2.16-1.6-3.656-4.352-3.656-7.392V144zm-40 56v-48h24c0 8.784 4.792 16.392 11.848 20.576.432.264.88.48 1.328.72.72.368 1.432.736 2.184 1.024.84.336 1.72.576 2.608.808.528.136 1.04.312 1.584.416.168.032.312.096.48.128.56.096 1.112.04 1.672.096.768.072 1.512.232 2.296.232.232 0 .448-.064.672-.072.736-.024 1.448-.136 2.168-.216.96-.112 1.904-.24 2.824-.464.688-.168 1.344-.4 2.016-.624.896-.304 1.776-.64 2.624-1.04a25.618 25.618 0 0 0 4.2-2.592c.336-.256.72-.432 1.04-.704.16-.136.312-.264.464-.4.464.416 1.008.744 1.504 1.12.496.384.976.776 1.504 1.12.752.488 1.56.88 2.368 1.288.536.264 1.04.568 1.592.792.928.376 1.912.64 2.888.896.496.128.96.32 1.472.424 1.512.296 3.064.472 4.664.472 1.6 0 3.152-.176 4.664-.472.52-.104.992-.296 1.496-.432.968-.264 1.944-.512 2.864-.888.568-.232 1.08-.536 1.624-.808.8-.4 1.6-.792 2.344-1.272.536-.344 1.016-.744 1.512-1.128.496-.376 1.032-.704 1.496-1.12.464.416 1 .736 1.496 1.12.504.384.984.792 1.52 1.136.744.48 1.544.872 2.344 1.272.544.272 1.056.576 1.624.808.92.376 1.888.632 2.864.888.504.136.984.328 1.496.432A24.7 24.7 0 0 0 232 176c1.6 0 3.152-.176 4.664-.472.504-.104.976-.288 1.472-.424.984-.264 1.96-.52 2.888-.896.56-.224 1.064-.528 1.6-.8.808-.4 1.608-.8 2.36-1.288.528-.344 1-.736 1.504-1.12.496-.376 1.04-.704 1.504-1.12.152.136.304.272.464.4.32.272.704.448 1.032.704a24.73 24.73 0 0 0 2.328 1.576c.608.36 1.216.704 1.856 1.008.88.424 1.784.76 2.72 1.08.632.216 1.256.432 1.904.592.976.24 1.976.368 2.984.488.672.08 1.328.184 2.008.2.24.008.464.072.712.072.8 0 1.56-.16 2.336-.24.544-.048 1.088 0 1.64-.088.184-.032.352-.096.536-.128.36-.072.704-.176 1.056-.264a21.784 21.784 0 0 0 2.976-.928c.528-.2 1.04-.416 1.544-.656.56-.272 1.104-.576 1.64-.888 5.848-3.312 10.2-8.92 11.68-15.664.352.896.592 1.848.592 2.856v28.688L276.688 200H120zm208 6.568c0 3.656-1.592 7.112-4.36 9.496l-43.888 37.616a20.516 20.516 0 0 0-7.064 17.608l13.976 139.768a4.463 4.463 0 0 1-1.144 3.472 4.483 4.483 0 0 1-3.336 1.472h-108.44a4.449 4.449 0 0 1-3.328-1.472c-.496-.552-1.312-1.728-1.152-3.456l13.984-146.88a8.037 8.037 0 0 0-1.632-5.656L159.2 229.544 154.92 216h121.768c4.208 0 8.336-1.704 11.312-4.688L299.312 200A15.891 15.891 0 0 0 304 188.688V160c0-10.416-6.712-19.216-16-22.528v-25.464c16.264.28 30.544 10.168 36.512 25.36l3.008 7.56c.312.632.48 1.328.48 2.016v59.624zM360 200h-16v-48h16v48zm64-80v160c0 4.408-3.584 8-8 8h-32c-4.416 0-8-3.592-8-8V72c0-4.408 3.584-8 8-8h32c4.416 0 8 3.592 8 8v48zm40 96c0 4.408-3.584 8-8 8h-16v-96h16c4.416 0 8 3.592 8 8v80z"/></svg>