<svg xmlns="http://www.w3.org/2000/svg" viewBox="0 0 512 512"><path d="M265.999 157.04V70.947c0-5.522-4.477-10-10-10s-10 4.478-10 10v86.094c-13.046 11.923-53.845 51.584-53.845 81.267 0 35.204 28.641 63.845 63.845 63.845s63.845-28.641 63.845-63.845c0-29.683-40.799-69.344-53.845-81.268zm-10.001 125.114c-24.176 0-43.845-19.669-43.845-43.845 0-13.61 17.073-35.812 33.845-53.325v54.329c0 5.522 4.477 10 10 10s10-4.477 10-10v-54.33c16.773 17.514 33.845 39.716 33.845 53.326.001 24.176-19.668 43.845-43.845 43.845z"/><path d="M493.705 152.242c-11.664-11.353-26.982-17.604-43.134-17.604H296.355a9.998 9.998 0 0 0-9.242 6.182 9.998 9.998 0 0 0 2.184 10.902c5.85 5.829 11.322 11.667 16.265 17.352 23.389 26.901 34.283 48.901 34.283 69.235 0 4.907-.431 9.834-1.281 14.643a83.2 83.2 0 0 1-4.091 14.854l-.001.001c-12.264 32.506-43.8 54.346-78.472 54.346-34.671 0-66.206-21.838-78.47-54.34a83.297 83.297 0 0 1-4.579-17.976 84.678 84.678 0 0 1-.796-11.529c0-20.334 10.894-42.334 34.283-69.235 4.941-5.684 10.414-11.521 16.265-17.353a9.998 9.998 0 0 0-7.058-17.083H61.427c-16.152 0-31.47 6.252-43.133 17.604C6.497 163.725 0 178.934 0 195.067v245.985c0 5.522 4.477 10 10 10h492c5.523 0 10-4.478 10-10V195.068c0-16.134-6.497-31.343-18.295-42.826zM20 195.063c0-21.911 18.971-40.426 41.427-40.426h131.064c-.386.438-.768.876-1.148 1.313-26.737 30.753-39.19 56.923-39.19 82.359 0 4.016.238 8.077.709 12.104l-.187-.154-.46-.379-.44-.361-.494-.404a110.029 110.029 0 0 0-.915-.741l-.425-.341c-.169-.135-.338-.271-.509-.406l-.428-.338-.521-.408a82.068 82.068 0 0 0-.971-.747l-.442-.334-.552-.412a86.978 86.978 0 0 0-.448-.328c-.188-.137-.375-.274-.565-.41l-.467-.332c-.188-.133-.376-.266-.567-.398-.161-.112-.324-.223-.487-.334a65.602 65.602 0 0 0-.582-.394c-.162-.108-.326-.215-.49-.323-.2-.131-.4-.262-.603-.392l-.508-.321c-.203-.127-.405-.254-.611-.38-.174-.107-.352-.212-.528-.318-.207-.124-.414-.248-.624-.371-.181-.105-.365-.209-.548-.313-.211-.12-.421-.24-.634-.358-.187-.104-.378-.205-.567-.307-.216-.116-.432-.233-.651-.347-.192-.1-.387-.198-.582-.297a46.389 46.389 0 0 0-.669-.336c-.198-.097-.4-.192-.601-.287-.228-.109-.456-.218-.688-.324-.204-.094-.412-.184-.619-.276-.234-.104-.467-.208-.705-.31-.212-.09-.428-.178-.643-.266-.239-.098-.477-.198-.721-.294-.22-.087-.444-.17-.667-.254-.245-.093-.488-.187-.736-.277-.23-.083-.466-.163-.7-.244-.247-.086-.493-.173-.744-.256-.24-.079-.484-.154-.728-.23-.254-.08-.505-.161-.763-.238-.248-.074-.501-.143-.753-.214-.259-.073-.516-.148-.78-.219-.259-.069-.524-.133-.787-.199-.264-.066-.525-.134-.792-.197-.272-.064-.551-.122-.827-.183-.266-.058-.529-.119-.799-.174-.283-.058-.574-.11-.861-.164-.272-.051-.54-.105-.816-.153-.298-.051-.603-.097-.905-.144-.273-.043-.542-.089-.819-.129-.313-.045-.634-.082-.951-.123-.276-.035-.548-.074-.828-.105-.332-.038-.673-.068-1.01-.101-.273-.027-.542-.057-.818-.081-.373-.031-.756-.054-1.135-.08-.25-.017-.496-.038-.749-.052-.424-.024-.859-.038-1.291-.054-.218-.008-.431-.021-.651-.027a72.87 72.87 0 0 0-1.998-.028c-21.778 0-33.399 9.584-42.736 17.285-8.613 7.103-15.415 12.715-30.01 12.715-.979 0-1.939-.034-2.888-.086-.286-.016-.567-.039-.851-.06a48.57 48.57 0 0 1-2.024-.187c-.289-.033-.577-.065-.863-.103a43.861 43.861 0 0 1-2.27-.363c-.139-.026-.283-.045-.421-.073a40.838 40.838 0 0 1-2.577-.599c-.227-.06-.447-.129-.672-.193a37.72 37.72 0 0 1-2.62-.847 35.614 35.614 0 0 1-1.813-.721c-.189-.081-.382-.155-.569-.239-.064-.029-.123-.063-.187-.092v-64.82zm0 235.989v-17.958h406.188c5.523 0 10-4.478 10-10s-4.477-10-10-10H20V281.127c.32.089.647.167.97.251.367.096.732.197 1.102.286.317.076.64.141.959.213.392.087.78.18 1.176.26.3.061.604.111.906.167.421.079.84.162 1.266.233.286.047.577.085.866.129.446.068.889.14 1.339.199.303.04.612.069.917.105.441.051.879.107 1.324.15.339.033.684.054 1.025.082.416.034.83.073 1.25.1.442.028.89.043 1.335.063.325.015.647.036.975.046.776.025 1.558.037 2.345.037 21.778 0 33.399-9.584 42.736-17.285 8.613-7.103 15.416-12.715 30.01-12.715 14.597 0 21.403 5.61 30.019 12.713a561.7 561.7 0 0 0 1.794 1.473l.405.33c.618.503 1.246 1.008 1.885 1.513l.385.303c.663.521 1.337 1.041 2.029 1.558l.192.141c.66.49 1.335.976 2.024 1.457.111.077.219.155.331.232a69.137 69.137 0 0 0 4.989 3.129c.118.066.239.13.358.196.788.437 1.595.862 2.427 1.271.086.042.168.086.254.128.863.419 1.758.818 2.673 1.202.105.044.201.094.307.138 16.285 37.822 54.05 62.921 95.424 62.921 41.378 0 79.143-25.1 95.428-62.93.097-.04.185-.086.281-.127a53.823 53.823 0 0 0 2.707-1.218l.209-.106c.85-.418 1.674-.852 2.478-1.299.108-.06.218-.118.325-.178a62.206 62.206 0 0 0 2.795-1.678 70.418 70.418 0 0 0 2.209-1.461l.301-.211a86.898 86.898 0 0 0 2.065-1.486l.163-.12c.698-.521 1.377-1.046 2.046-1.571l.363-.285c.647-.511 1.282-1.022 1.907-1.53l.362-.296c.616-.503 1.225-1.004 1.824-1.497 8.617-7.103 15.424-12.713 30.021-12.713 14.596 0 21.399 5.611 30.013 12.715 9.338 7.701 20.959 17.285 42.738 17.285.788 0 1.57-.012 2.347-.037.256-.008.507-.025.761-.036.518-.022 1.038-.041 1.551-.074.3-.019.594-.049.892-.071.463-.035.928-.067 1.386-.111.31-.03.615-.07.923-.105.441-.049.883-.093 1.32-.15.327-.043.65-.097.975-.145.411-.06.824-.115 1.232-.183.363-.06.72-.132 1.08-.199.363-.067.729-.128 1.089-.201.391-.079.775-.171 1.162-.257.323-.072.65-.138.971-.216.413-.099.819-.211 1.227-.318.282-.074.568-.142.848-.22v149.929H20zm472-171.168c-.065.03-.126.065-.192.094-.185.083-.376.156-.562.236a35.86 35.86 0 0 1-4.418 1.563c-.235.067-.465.139-.702.202-.839.222-1.691.423-2.561.595-.154.03-.314.052-.47.081a43.3 43.3 0 0 1-2.223.355c-.292.039-.587.072-.882.106a49.54 49.54 0 0 1-2.008.186c-.286.02-.571.044-.86.06a52.61 52.61 0 0 1-2.888.086c-14.596 0-21.399-5.611-30.013-12.715-9.338-7.701-20.959-17.285-42.738-17.285-.676 0-1.342.009-1.998.028-.219.006-.43.019-.647.027-.433.016-.868.03-1.293.054-.266.015-.524.037-.787.054-.367.025-.736.047-1.097.077-.275.023-.541.053-.813.08-.341.033-.684.064-1.02.102-.268.031-.53.068-.795.101-.329.042-.66.081-.984.127-.266.038-.524.082-.786.124-.314.049-.63.096-.939.15-.263.046-.52.097-.78.146-.3.056-.602.11-.897.17-.259.053-.511.111-.766.167-.287.063-.577.124-.86.19-.256.06-.505.126-.758.188-.275.069-.552.136-.822.208-.249.066-.492.138-.737.207-.266.075-.534.148-.797.227-.243.072-.48.149-.719.224-.258.081-.518.16-.772.244-.236.078-.467.16-.699.24-.249.086-.5.171-.745.26-.233.084-.46.172-.69.259-.239.09-.479.18-.714.272-.228.09-.452.183-.677.276-.229.094-.46.187-.686.284-.221.094-.439.192-.657.288-.224.099-.449.198-.67.299-.215.099-.426.2-.638.3-.217.103-.435.205-.648.31-.211.103-.417.209-.625.314-.209.106-.419.211-.626.319-.206.107-.408.217-.612.326-.202.109-.405.217-.605.327-.202.112-.4.225-.599.338-.195.111-.39.221-.583.333a76.768 76.768 0 0 0-1.153.689c-.192.118-.381.236-.57.355-.184.115-.368.23-.55.347-.19.122-.378.245-.566.368-.175.115-.35.229-.522.344-.189.126-.375.253-.561.38l-.504.345c-.185.128-.367.257-.55.386-.163.115-.326.23-.487.346-.184.132-.366.264-.547.397-.154.113-.309.225-.461.338a78.33 78.33 0 0 0-.549.41l-.44.332a85.807 85.807 0 0 0-.962.74l-.561.439-.374.295a149.11 149.11 0 0 0-1.556 1.249l-.223.181c-.565.46-1.12.916-1.666 1.366.467-4.008.703-8.054.703-12.087.002-25.435-12.45-51.604-39.188-82.357-.379-.437-.763-.874-1.148-1.313H450.57c22.457 0 41.43 18.515 41.43 40.43v64.816z"/><path d="M140.8 303.98a10.175 10.175 0 0 0-1.49-3.599 9.578 9.578 0 0 0-1.24-1.521 9.51 9.51 0 0 0-1.52-1.239 9.87 9.87 0 0 0-1.73-.92c-.6-.25-1.23-.44-1.87-.57a9.898 9.898 0 0 0-3.91 0c-.63.13-1.26.32-1.87.57-.6.25-1.18.56-1.72.92a9.51 9.51 0 0 0-1.52 1.239 9.896 9.896 0 0 0-2.17 3.25 9.855 9.855 0 0 0-.76 3.82c0 .65.06 1.311.19 1.96.13.63.33 1.26.58 1.87.25.6.56 1.18.92 1.72.36.551.78 1.06 1.24 1.521.46.46.97.88 1.52 1.25.54.359 1.12.67 1.72.92.61.25 1.24.439 1.87.57.65.13 1.31.189 1.96.189s1.31-.06 1.95-.189a10.175 10.175 0 0 0 3.6-1.49c.55-.37 1.06-.79 1.52-1.25.46-.46.88-.97 1.24-1.521.36-.54.67-1.12.92-1.72.25-.61.44-1.24.57-1.87.13-.649.2-1.31.2-1.96 0-.649-.07-1.31-.2-1.95zm45.279 48.159c-.13-.638-.32-1.268-.57-1.869-.25-.6-.56-1.18-.92-1.72-.37-.55-.79-1.06-1.25-1.53-2.32-2.319-5.78-3.39-9.02-2.73a10.096 10.096 0 0 0-5.12 2.729c-.46.471-.88.98-1.24 1.53-.36.54-.67 1.12-.92 1.72a10.122 10.122 0 0 0-.77 3.83 10.098 10.098 0 0 0 1.69 5.549c.36.54.78 1.061 1.24 1.521 1.86 1.859 4.44 2.93 7.07 2.93s5.21-1.07 7.07-2.93c.46-.46.88-.98 1.25-1.521a10.122 10.122 0 0 0 1.49-3.599c.13-.65.19-1.3.19-1.95 0-.66-.06-1.31-.19-1.96zm249.912-48.159a10.098 10.098 0 0 0-1.49-3.599 9.578 9.578 0 0 0-1.24-1.521 9.51 9.51 0 0 0-1.52-1.239 9.87 9.87 0 0 0-1.73-.92c-.6-.25-1.23-.44-1.87-.57a9.898 9.898 0 0 0-3.91 0c-.63.13-1.26.32-1.87.57-.6.25-1.18.56-1.72.92a9.51 9.51 0 0 0-1.52 1.239 9.896 9.896 0 0 0-2.17 3.25 9.855 9.855 0 0 0-.76 3.82c0 .65.06 1.311.19 1.96.13.63.32 1.26.57 1.87.25.6.56 1.18.92 1.72.37.551.79 1.06 1.25 1.521.46.46.97.88 1.52 1.25.54.359 1.12.67 1.72.92.61.25 1.24.439 1.87.57.65.13 1.31.189 1.96.189.65 0 1.31-.06 1.95-.189a10.175 10.175 0 0 0 3.6-1.49c.55-.37 1.06-.79 1.52-1.25.46-.46.88-.97 1.24-1.521.36-.54.67-1.12.92-1.72.25-.61.44-1.24.57-1.87.13-.649.2-1.31.2-1.96 0-.649-.07-1.31-.2-1.95zm-54.19 36.32a10.222 10.222 0 0 0-.57-1.87 9.86 9.86 0 0 0-.92-1.729 9.533 9.533 0 0 0-1.24-1.521 9.57 9.57 0 0 0-1.52-1.24 9.937 9.937 0 0 0-1.73-.92c-.6-.25-1.23-.45-1.87-.569a9.86 9.86 0 0 0-3.91 0c-.63.119-1.26.319-1.87.569-.6.25-1.18.561-1.72.92-.55.36-1.06.78-1.52 1.24a9.86 9.86 0 0 0-2.17 3.25 9.84 9.84 0 0 0-.76 3.82 9.847 9.847 0 0 0 .76 3.819 9.834 9.834 0 0 0 2.17 3.25c.46.46.97.881 1.52 1.24.54.36 1.12.67 1.72.92.61.25 1.24.45 1.87.58.65.13 1.31.19 1.96.19.65 0 1.31-.061 1.95-.19.64-.13 1.27-.33 1.87-.58a9.87 9.87 0 0 0 1.73-.92c.55-.359 1.06-.78 1.52-1.24a10.072 10.072 0 0 0 2.93-7.069c0-.65-.07-1.311-.2-1.95zM69.799 328.289a10.189 10.189 0 0 0-1.49-3.599 9.57 9.57 0 0 0-1.24-1.52c-2.32-2.32-5.77-3.39-9.03-2.73-.63.13-1.26.32-1.87.57-.6.25-1.18.559-1.72.92-.55.36-1.06.78-1.52 1.24a9.87 9.87 0 0 0-2.73 5.12c-.13.64-.2 1.3-.2 1.95 0 .659.07 1.31.2 1.96.12.63.32 1.26.57 1.869.25.601.55 1.181.91 1.721.37.55.79 1.06 1.25 1.52.46.46.97.88 1.52 1.25.54.36 1.12.67 1.72.92.61.25 1.24.44 1.87.57a10.034 10.034 0 0 0 9.03-2.741c.46-.46.88-.97 1.24-1.52.36-.54.67-1.12.92-1.721.25-.609.44-1.239.57-1.869.13-.65.2-1.301.2-1.96 0-.65-.07-1.311-.2-1.95zM471.451 400.9c-.13-.64-.32-1.27-.57-1.87a9.905 9.905 0 0 0-.92-1.73 9.57 9.57 0 0 0-1.24-1.52 10.07 10.07 0 0 0-7.07-2.92c-2.64 0-5.21 1.061-7.07 2.92a9.87 9.87 0 0 0-2.17 3.25 9.855 9.855 0 0 0-.76 3.82c0 .66.06 1.311.19 1.96.13.63.32 1.26.57 1.87.25.6.56 1.18.92 1.72a10.016 10.016 0 0 0 8.32 4.451c2.63 0 5.21-1.06 7.07-2.93.46-.46.88-.97 1.24-1.521.36-.54.67-1.12.92-1.72.25-.61.44-1.24.57-1.87.13-.649.2-1.3.2-1.96 0-.649-.07-1.31-.2-1.95z"/></svg>