<svg xmlns="http://www.w3.org/2000/svg" viewBox="0 0 500.605 500.605"><path d="M101.951 17.753c51.355 8.069 66.495 67.968 63.18 98.302-3.094 28.313-.534 30.484 1.161 31.922a4.676 4.676 0 0 0 1.723.931c20.954 8.815 38.242 9.717 51.388 2.678 20.848-11.161 26.189-39.48 29.38-56.4.42-2.228.817-4.332 1.2-6.143 4.536-21.43 18.001-83.265 18.137-83.887a4.25 4.25 0 0 0-8.306-1.809c-.135.622-13.606 62.481-18.146 83.935-.403 1.903-.808 4.052-1.237 6.327-3.098 16.423-7.778 41.242-25.039 50.482-10.566 5.657-25.03 4.789-43.003-2.572-.293-2.139-.585-8.273 1.193-24.541 3.629-33.198-13.345-98.859-70.565-107.662a4.343 4.343 0 0 0-.377-.041c-.702-.039-17.355-.912-28.812 14.515a4.255 4.255 0 0 0 .065 5.153c.116.149 11.72 15.136 20.254 38.223 7.797 21.095 14.565 53.524 2.534 88.252-.678 1.847-10.108 29.162 5.28 76.669 14.106 43.55 8.387 90.787-3.538 118.281-10.719 24.713-86.062 142.405-86.822 143.591a4.25 4.25 0 0 0 7.157 4.586 5857.021 5857.021 0 0 0 34.74-55.008l39.424 23.936a4.248 4.248 0 0 0 5.839-1.427 4.25 4.25 0 0 0-1.427-5.839L57.987 436.32c20.556-33.105 42.596-69.575 48.232-82.569 12.562-28.961 18.617-78.622 3.827-124.283-14.598-45.068-5.475-70.88-5.387-71.121l.037-.103c12.912-37.229 5.669-71.828-2.68-94.297-6.911-18.597-15.53-31.959-19.401-37.469 7.989-8.701 17.94-8.765 19.336-8.725zm67.688 122.845a4.338 4.338 0 0 0-.655.004c.099-.007.201-.021.297-.021.122.001.241.006.358.017zm-.801.014zm127.705-40.638a15.055 15.055 0 0 0 6.715 1.58c4.716 0 9.284-2.216 12.029-6.232l3.82-5.581c12.666-18.498 30.013-43.831 49.91-75.213a4.25 4.25 0 0 0-7.179-4.552c-19.816 31.256-37.114 56.518-49.744 74.962l-3.824 5.587c-1.656 2.422-5.145 3.23-7.94 1.839a6.421 6.421 0 0 1-3.438-6.933l18.55-80.222a4.25 4.25 0 0 0-3.183-5.098 4.247 4.247 0 0 0-5.098 3.183l-18.566 80.294c-.01.042-.019.085-.027.127-1.312 6.583 1.968 13.269 7.975 16.259zm50.975 17.815c-2.862 6.239-1.163 13.653 4.134 18.03 3.025 2.5 6.889 4.166 10.816 4.166 3.417 0 6.881-1.262 9.881-4.333.053-.055.105-.111.156-.169l87.12-99.431a4.25 4.25 0 1 0-6.394-5.602l-87.036 99.335c-3.574 3.561-7.886.509-9.128-.518a6.691 6.691 0 0 1-1.928-7.693l64.865-101.026a4.251 4.251 0 0 0-7.153-4.593l-65.047 101.31a4.357 4.357 0 0 0-.286.524zm49.137 67.869c3.395 4.4 8.682 6.811 13.757 6.811 2.902 0 5.736-.788 8.106-2.443.05-.035.1-.071.148-.108 0 0 36.535-27.926 69.345-53.051a4.25 4.25 0 0 0-5.168-6.748c-31.889 24.42-67.299 51.487-69.254 52.982-2.823 1.901-7.663.662-10.205-2.634-2.273-2.945-2.197-7.398.178-10.357 17.385-21.663 46.364-55.62 75.09-89.088a4.25 4.25 0 1 0-6.45-5.536c-28.773 33.523-57.807 67.545-75.27 89.304-4.839 6.03-4.955 14.808-.277 20.868zM254.716 447.415c11.797-30.704 15.045-35.785 55.354-63.702 40.966-28.374 105.994-123.67 111.709-132.11l66.448-58.15a4.25 4.25 0 1 0-5.598-6.396l-42.293 37.012-18.221-18.22a4.25 4.25 0 1 0-6.011 6.011l17.82 17.82-18.157 15.89c-.276.242-.52.518-.725.822-.687 1.018-69.158 102.177-109.813 130.334-37.114 25.706-44.059 34.496-53.916 56.988l-50.771-29.146a4.25 4.25 0 0 0-4.232 7.371l51.638 29.644-1.069 2.54-.438 1.039c-1.452 3.454-3.096 7.635-4.901 12.457l-93.697-51.343a4.251 4.251 0 0 0-4.085 7.455l94.819 51.958c-11 30.278-10.56 30.926-9.054 33.081a4.342 4.342 0 0 0 3.52 1.837h.002c1.422 0 2.773-.717 3.612-1.917.236-.339.423-.709.552-1.102.003-.001 12.743-37.773 17.507-50.173z"/><path d="M378.431 256.503a4.251 4.251 0 0 0 1.055-8.367c-68.095-17.51-149.298-95.162-150.11-95.945a4.25 4.25 0 0 0-5.897 6.122c3.381 3.257 83.614 79.984 153.89 98.056.356.09.712.134 1.062.134zm-213.43 95.238a4.247 4.247 0 0 0 5.916-1.061c33.942-48.792 32.687-96.459 25.659-127.856-7.598-33.937-23.02-56.092-23.673-57.019a4.25 4.25 0 0 0-6.948 4.896c.15.213 15.096 21.681 22.327 53.981 9.683 43.249 1.493 84.007-24.341 121.144a4.247 4.247 0 0 0 1.06 5.915zm173.696-89.676c-3.579.625-88.087 15.871-126.653 66.615a4.25 4.25 0 0 0 6.768 5.144c36.53-48.067 120.503-63.237 121.348-63.385a4.25 4.25 0 0 0-1.463-8.374zm-3.383-65.126a4.248 4.248 0 0 0 5.801-1.573 4.25 4.25 0 0 0-1.573-5.801c-71.408-40.94-83.086-60.817-83.342-61.272a4.25 4.25 0 0 0-7.572 3.86c.43.863 11.437 21.643 86.686 64.786zM250.737 90.783a4.248 4.248 0 0 0 .805 5.956l31.499 24c.769.586 1.674.87 2.573.87a4.248 4.248 0 0 0 2.578-7.63L256.693 89.98a4.247 4.247 0 0 0-5.956.803z"/></svg>