<svg xmlns="http://www.w3.org/2000/svg" viewBox="0 0 512 512"><path d="M354.349 0c-14.974 0-29.427 6.261-39.676 17.174-10.069 10.725-15.117 24.603-14.201 39.083 1.06 16.842 7.402 32.84 17.534 44.769-8.686 14.345-14.219 30.154-16.195 46.745-7.635 4.743-14.201 11.039-19.088 18.648-17.516 27.28-18.001 65.32-17.74 76.324.674 27.783 10.824 50.931 20.678 69.919 9.216 17.794 22.474 34.502 40.529 51.083 2.515 2.308 5.183 4.581 7.887 6.881 8.632 7.339 16.788 14.282 20.624 23.238 1.509 3.53 1.554 6.925.79 10.078-7.788-10.671-20.3-17.695-34.493-17.695H191.012c-13.671 0-25.735 6.566-33.576 16.582-.494-2.838-.314-5.848 1.024-8.964 3.844-8.964 12.001-15.908 20.651-23.256 2.686-2.282 5.345-4.554 7.86-6.863 18.055-16.582 31.304-33.289 40.529-51.083 9.854-18.989 20.004-42.137 20.678-69.919.26-11.021-.234-49.08-17.749-76.324-5.147-8.021-12.171-14.57-20.345-19.384-2.048-16.321-7.527-31.888-16.088-46.017 10.132-11.929 16.474-27.927 17.534-44.76.916-14.48-4.132-28.367-14.201-39.092C187.078 6.261 172.625 0 157.193 0 72.991 0 4.491 68.5 4.491 152.702v17.965c0 84.202 68.5 152.702 153.16 152.702 14.974 0 29.427-6.261 39.675-17.174 10.069-10.725 15.117-24.603 14.201-39.083-1.06-16.842-7.401-32.84-17.534-44.769 9.611-15.872 15.297-33.567 16.654-52.089 1.716 1.841 3.323 3.773 4.671 5.866 11.713 18.234 15.378 46.143 14.893 66.183-.575 24.055-9.306 44.05-18.657 62.087-8.237 15.899-20.255 30.981-36.738 46.116-2.344 2.156-4.833 4.267-7.339 6.405-9.387 7.985-20.022 17.031-25.519 29.876-5.318 12.414-2.811 25.977 6.71 37.852-.153 1.464-.449 2.892-.449 4.401a42.774 42.774 0 0 0 22.303 37.574l81.183 44.284a8.854 8.854 0 0 0 4.294 1.105 9.01 9.01 0 0 0 4.303-1.096l81.183-44.284a42.772 42.772 0 0 0 22.303-37.574c0-1.096-.243-2.12-.323-3.198 10.339-12.153 13.24-26.22 7.734-39.056-5.488-12.845-16.115-21.89-25.492-29.858-2.524-2.147-5.021-4.267-7.366-6.422-16.483-15.144-28.501-30.226-36.738-46.125-9.351-18.028-18.082-38.023-18.657-62.087-.494-20.022 3.171-47.921 14.884-66.183a41.536 41.536 0 0 1 3.584-4.761c1.5 18.127 7.168 35.427 16.591 50.984-10.132 11.929-16.483 27.926-17.534 44.76-.916 14.48 4.132 28.367 14.201 39.092 10.249 10.914 24.702 17.174 40.134 17.174 84.202 0 152.702-68.5 152.702-152.702v-17.965C507.509 68.5 439.009 0 354.349 0zM193.123 161.684c0 28.007-11.749 54.38-33.073 74.276l12.243 13.141c3.889-3.629 7.402-7.491 10.734-11.471 6.036 8.533 9.854 19.24 10.572 30.612.593 9.477-2.731 18.585-9.369 25.654-6.863 7.312-16.555 11.507-27.037 11.507-74.294 0-134.737-60.443-134.737-134.737v-17.965c0-74.294 60.443-134.737 135.195-134.737 10.024 0 19.716 4.195 26.579 11.507 6.638 7.069 9.962 16.177 9.369 25.663-.71 11.363-4.536 22.07-10.563 30.612-3.332-3.979-6.854-7.842-10.734-11.471l-12.243 13.141c21.315 19.888 33.064 46.261 33.064 74.268zM332.89 450.847L256 492.787l-76.89-41.93a24.847 24.847 0 0 1-12.935-21.809c0-13.698 11.138-24.836 24.836-24.836h129.985c13.689 0 24.828 11.138 24.828 24.836a24.818 24.818 0 0 1-12.934 21.799zm156.654-280.18c0 74.294-60.443 134.737-135.195 134.737-10.024 0-19.716-4.195-26.579-11.507-6.638-7.069-9.962-16.177-9.369-25.663.71-11.363 4.536-22.07 10.563-30.612 3.333 3.979 6.854 7.842 10.734 11.471l12.243-13.141c-21.315-19.887-33.064-46.26-33.064-74.267 0-28.007 11.749-54.38 33.073-74.276l-12.243-13.141c-3.889 3.629-7.402 7.491-10.734 11.471-6.027-8.542-9.845-19.249-10.563-30.612-.593-9.476 2.731-18.585 9.369-25.654 6.854-7.312 16.546-11.507 27.028-11.507 74.294 0 134.737 60.443 134.737 134.737v17.964z"/><path d="M121.263 62.877h17.965v17.965h-17.965zm-62.877 44.912h17.965v17.965H58.386zm0 89.825h17.965v17.965H58.386zm44.912-44.912h17.965v17.965h-17.965zm17.965 89.824h17.965v17.965h-17.965zm251.509 0h17.965v17.965h-17.965zm62.877-44.912h17.965v17.965h-17.965zm0-89.825h17.965v17.965h-17.965zm-44.912 44.913h17.965v17.965h-17.965zm-17.965-89.825h17.965v17.965h-17.965z"/></svg>