<svg xmlns="http://www.w3.org/2000/svg" viewBox="0 0 512 512"><path d="M437.02 74.982C388.667 26.628 324.38 0 256 0S123.333 26.628 74.98 74.982C26.628 123.333 0 187.619 0 256s26.628 132.667 74.98 181.019C123.333 485.372 187.62 512 256 512s132.667-26.628 181.02-74.981C485.372 388.667 512 324.381 512 256s-26.628-132.667-74.98-181.018zM256 491.602c-129.911 0-235.602-105.69-235.602-235.602S126.089 20.398 256 20.398 491.602 126.089 491.602 256 385.911 491.602 256 491.602z"/><path d="M256 203.872c-28.743 0-52.128 23.385-52.128 52.128s23.385 52.128 52.128 52.128 52.128-23.385 52.128-52.128-23.385-52.128-52.128-52.128zm0 83.858c-17.496 0-31.73-14.234-31.73-31.73s14.234-31.73 31.73-31.73 31.73 14.234 31.73 31.73-14.234 31.73-31.73 31.73zm0-238.313c-36.083 0-65.438 29.355-65.438 65.438s29.355 65.438 65.438 65.438 65.438-29.355 65.438-65.438c0-36.082-29.355-65.438-65.438-65.438zm0 110.478c-24.835 0-45.04-20.206-45.04-45.04s20.205-45.04 45.04-45.04 45.04 20.206 45.04 45.04-20.205 45.04-45.04 45.04zm-59.025 8.596c-4.524-16.884-15.352-30.995-30.49-39.734-31.249-18.042-71.351-7.298-89.391 23.951-8.74 15.138-11.062 32.773-6.538 49.657s15.352 30.995 30.49 39.734a65.035 65.035 0 0 0 32.61 8.755c22.631-.002 44.675-11.738 56.781-32.706 8.74-15.138 11.063-32.773 6.538-49.657zm-24.204 39.457c-12.419 21.508-40.02 28.902-61.527 16.485-10.418-6.014-17.871-15.726-20.985-27.347-3.113-11.622-1.516-23.759 4.5-34.179 8.334-14.433 23.503-22.511 39.081-22.511a44.77 44.77 0 0 1 22.444 6.026c10.419 6.014 17.872 15.726 20.986 27.347 3.114 11.622 1.517 23.759-4.499 34.179zm17.667 85.904c-18.041-31.247-58.143-41.991-89.391-23.951-15.139 8.739-25.967 22.85-30.491 39.734-4.523 16.884-2.202 34.519 6.538 49.657 12.107 20.97 34.147 32.706 56.781 32.706a65.065 65.065 0 0 0 32.611-8.755c15.138-8.739 25.965-22.85 30.49-39.734 4.523-16.884 2.201-34.519-6.538-49.657zm-13.166 44.378c-3.115 11.62-10.567 21.333-20.986 27.347-21.508 12.417-49.108 5.023-61.526-16.485-6.016-10.42-7.614-22.557-4.5-34.179 3.114-11.62 10.566-21.333 20.985-27.347a44.76 44.76 0 0 1 22.444-6.026c15.577 0 30.749 8.079 39.082 22.511 6.017 10.42 7.615 22.557 4.501 34.179zM256 331.707c-36.083 0-65.438 29.355-65.438 65.438s29.355 65.438 65.438 65.438 65.438-29.355 65.438-65.438-29.355-65.438-65.438-65.438zm0 110.477c-24.835 0-45.04-20.206-45.04-45.04s20.205-45.04 45.04-45.04 45.04 20.206 45.04 45.04c0 24.835-20.205 45.04-45.04 45.04zm185.444-132.548c-4.524-16.884-15.352-30.995-30.49-39.734-31.247-18.04-71.349-7.298-89.391 23.951-8.74 15.138-11.062 32.773-6.538 49.657 4.524 16.884 15.352 30.995 30.49 39.734a65.035 65.035 0 0 0 32.61 8.755c22.632-.002 44.675-11.738 56.781-32.706 8.74-15.138 11.062-32.774 6.538-49.657zm-24.204 39.456c-12.418 21.507-40.019 28.905-61.526 16.485-10.419-6.014-17.872-15.726-20.986-27.347-3.113-11.622-1.516-23.759 4.5-34.179 8.333-14.433 23.502-22.511 39.08-22.511a44.768 44.768 0 0 1 22.446 6.026c10.419 6.014 17.871 15.726 20.985 27.347 3.114 11.623 1.517 23.76-4.499 34.179zm17.666-196.384c-18.041-31.247-58.142-41.993-89.391-23.951-15.138 8.739-25.966 22.85-30.49 39.734-4.523 16.884-2.202 34.519 6.538 49.657 12.107 20.97 34.147 32.706 56.78 32.706a65.045 65.045 0 0 0 32.61-8.755c15.139-8.739 25.967-22.85 30.49-39.734 4.524-16.884 2.203-34.52-6.537-49.657zm-13.167 44.377c-3.114 11.62-10.566 21.333-20.985 27.347-21.508 12.419-49.108 5.023-61.526-16.485-6.016-10.419-7.614-22.557-4.5-34.179 3.115-11.62 10.567-21.333 20.986-27.347a44.758 44.758 0 0 1 22.444-6.026c15.577 0 30.749 8.079 39.08 22.511 6.017 10.42 7.615 22.557 4.501 34.179zm-86.718 261.599c-1.797-5.338-7.579-8.211-12.92-6.412a206.225 206.225 0 0 1-17.49 5.036c-5.477 1.317-8.849 6.825-7.531 12.302 1.124 4.674 5.302 7.816 9.907 7.816.79 0 1.592-.092 2.394-.285a227.334 227.334 0 0 0 19.228-5.537c5.338-1.797 8.21-7.582 6.412-12.92zm86.152-61.201c-4.102-3.86-10.556-3.668-14.418.433-16.081 17.076-34.755 31.194-55.502 41.966-5 2.595-6.948 8.752-4.353 13.751a10.197 10.197 0 0 0 13.752 4.354c22.788-11.83 43.296-27.335 60.953-46.086 3.862-4.101 3.669-10.555-.432-14.418z"/></svg>