<svg xmlns="http://www.w3.org/2000/svg" viewBox="0 0 280.919 280.919"><path d="M213.999 23.952h-12.268V9.597a9.54 9.54 0 0 0-4.563-8.175 9.662 9.662 0 0 0-9.37-.399c-9.173 4.633-27.754 7.627-47.338 7.627-19.585 0-38.166-2.994-47.343-7.629a9.672 9.672 0 0 0-9.363.396 9.544 9.544 0 0 0-4.566 8.18v14.355H66.92c-8.656 0-15.698 7.042-15.698 15.698v10.91c0 8.656 7.042 15.698 15.698 15.698h12.268v7.164c0 5.686 3.323 10.924 8.466 13.345 17.352 8.167 47.033 8.581 52.807 8.581 16.676 0 39.3-2.253 52.786-8.577 5.154-2.417 8.485-7.658 8.485-13.354v-7.159H214c8.656 0 15.698-7.042 15.698-15.698V39.65c-.001-8.656-7.043-15.698-15.699-15.698zm.698 26.608a.699.699 0 0 1-.698.698h-19.768a7.499 7.499 0 0 0-7.5 7.5v14.5c-11.3 5.231-31.962 7.09-46.271 7.09-14.341 0-35.023-1.857-46.272-7.085V58.759c0-4.143-3.357-7.5-7.5-7.5H66.92a.699.699 0 0 1-.698-.698V39.65c0-.385.313-.698.698-.698h19.768c4.143 0 7.5-3.357 7.5-7.5V17.579c11.762 3.854 28.312 6.07 46.272 6.07s34.512-2.216 46.271-6.069v13.872c0 4.143 3.357 7.5 7.5 7.5h19.768c.385 0 .698.313.698.698v10.91z"/><path d="M212.094 116.558h-10.362v-14.355a9.663 9.663 0 0 0-4.563-8.175 9.662 9.662 0 0 0-9.37-.399c-9.173 4.633-27.754 7.627-47.338 7.627-19.585 0-38.166-2.994-47.343-7.629-2.961-1.493-6.55-1.34-9.355.393a9.665 9.665 0 0 0-4.574 8.184v14.355H68.825c-9.707 0-17.604 7.896-17.604 17.604v7.101c0 9.706 7.896 17.603 17.604 17.603h10.362v7.164c0 5.686 3.323 10.924 8.466 13.345 17.352 8.167 47.033 8.581 52.807 8.581 16.678 0 39.303-2.253 52.786-8.577 5.154-2.417 8.485-7.658 8.485-13.354v-7.159h10.362c9.707 0 17.604-7.896 17.604-17.603v-7.101c0-9.709-7.896-17.605-17.603-17.605zm2.603 24.704a2.607 2.607 0 0 1-2.604 2.603h-17.862a7.499 7.499 0 0 0-7.5 7.5v14.5c-11.297 5.231-31.961 7.09-46.271 7.09-14.341 0-35.023-1.857-46.272-7.085v-14.505c0-4.143-3.357-7.5-7.5-7.5H68.825a2.607 2.607 0 0 1-2.604-2.603v-7.101a2.607 2.607 0 0 1 2.604-2.604h17.862c4.143 0 7.5-3.357 7.5-7.5v-13.873c11.762 3.854 28.312 6.07 46.272 6.07s34.512-2.216 46.271-6.069v13.872c0 4.143 3.357 7.5 7.5 7.5h17.862a2.607 2.607 0 0 1 2.604 2.604v7.101zM108.576 26.972a7.499 7.499 0 0 0-7.5 7.5v28.832c0 4.143 3.357 7.5 7.5 7.5s7.5-3.357 7.5-7.5V34.472c0-4.143-3.357-7.5-7.5-7.5z"/><path d="M108.576 120.294a7.499 7.499 0 0 0-7.5 7.5v27.832c0 4.143 3.357 7.5 7.5 7.5s7.5-3.357 7.5-7.5v-27.832c0-4.143-3.357-7.5-7.5-7.5zm103.518 89.228h-10.362v-14.356a9.668 9.668 0 0 0-4.57-8.18 9.672 9.672 0 0 0-9.363-.395c-9.173 4.633-27.754 7.627-47.338 7.627-19.585 0-38.166-2.994-47.343-7.629-2.961-1.493-6.55-1.34-9.355.393a9.665 9.665 0 0 0-4.574 8.184v14.356H68.825c-9.707 0-17.604 7.896-17.604 17.603v7.101c0 9.707 7.896 17.604 17.604 17.604h10.362v7.163c0 5.684 3.322 10.922 8.467 13.346 17.354 8.167 47.032 8.581 52.806 8.581 16.677 0 39.301-2.253 52.786-8.578 5.154-2.417 8.485-7.658 8.485-13.354v-7.158h10.362c9.707 0 17.604-7.896 17.604-17.604v-7.101c0-9.706-7.896-17.603-17.603-17.603zm2.603 24.703a2.607 2.607 0 0 1-2.604 2.604h-17.862a7.499 7.499 0 0 0-7.5 7.5v14.499c-11.299 5.232-31.962 7.091-46.271 7.091-14.341 0-35.023-1.857-46.272-7.085v-14.505c0-4.143-3.357-7.5-7.5-7.5H68.825a2.607 2.607 0 0 1-2.604-2.604v-7.101a2.606 2.606 0 0 1 2.604-2.603h17.862c4.143 0 7.5-3.357 7.5-7.5v-13.873c11.762 3.854 28.312 6.069 46.272 6.069s34.512-2.216 46.271-6.069v13.873c0 4.143 3.357 7.5 7.5 7.5h17.862a2.606 2.606 0 0 1 2.604 2.603v7.101z"/><path d="M108.576 213.258a7.499 7.499 0 0 0-7.5 7.5v27.833c0 4.143 3.357 7.5 7.5 7.5s7.5-3.357 7.5-7.5v-27.833c0-4.143-3.357-7.5-7.5-7.5z"/></svg>