<svg xmlns="http://www.w3.org/2000/svg" viewBox="0 0 512 512"><path d="M341.333 42.667c-36.615 0-75.109 20.473-94.27 64h-12.397C211.146 106.667 192 87.531 192 64a10.62 10.62 0 0 0-2.646-7.021c-1.271-1.469-13.292-14.313-40.021-14.313s-38.75 12.844-40.021 14.313A10.62 10.62 0 0 0 106.666 64c0 70.583 57.417 128 128 128h4.181c4.246 11.702 11.503 22.208 21.715 29.792-2.354 8.615-3.542 17.188-3.542 25.563 0 12.948 2.583 25.625 7.708 37.802-13.208 7.542-23.083 20.063-27.417 34.854-31.292.354-55.396 6.896-70.396 18.49-12.188-7.177-38.292-18.5-81.583-18.5C31.896 320 0 371.833 0 458.667a10.66 10.66 0 0 0 10.667 10.667h42.667a10.66 10.66 0 0 0 10.667-10.667c0-46.875 10.25-53.333 21.333-53.333 8 0 9.542 1.958 13.25 6.688 4.583 5.833 11.5 14.646 29.417 14.646h28.188c12.396 9.75 58.813 42.667 121.146 42.667C358.5 469.333 512 424.75 512 256 512 80.99 388.813 42.667 341.333 42.667zm-106.666 128c-57.125 0-103.917-45.146-106.542-101.635 3.479-2.135 10.25-5.031 21.208-5.031 11.375 0 18.229 3.125 21.542 5.208 2.667 32.865 30.25 58.792 63.792 58.792h5.051c-3.214 12.732-5.051 26.899-5.051 42.666zM277.333 448c-63.396 0-109.875-39.646-110.333-40.052a10.738 10.738 0 0 0-7-2.615h-32c-7.542 0-9.021-1.896-12.625-6.49C110.729 392.927 103.708 384 85.333 384c-36.813 0-41.875 38.958-42.563 64H21.542c1.375-34.885 10.708-106.667 63.792-106.667 35.458 0 57.25 8.354 67.833 13.927-2.521 5.469-3.833 11.51-3.833 18.073 0 5.896 4.771 10.667 10.667 10.667s10.667-4.771 10.667-10.667c0-5.198 1.729-9.656 4.813-13.448.188-.188.375-.385.563-.594.229-.271.458-.552.667-.833 11.604-12.375 38.104-17.125 63.292-17.125.854 0 1.688.094 2.521.167l2.896.219c5.438.427 10.438-3.865 11.083-9.406 1.75-14.844 11.896-27.292 25.854-31.719 3.042-.969 5.5-3.25 6.688-6.219a10.758 10.758 0 0 0-.583-9.115c-6.708-12.115-10.104-24.865-10.104-37.906 0-8.677 1.604-17.354 4.875-26.521a10.657 10.657 0 0 0-4.917-12.948C264.542 200.333 256 186.073 256 170.667 256 97.375 300.229 64 341.333 64c41.542 0 149.333 34.49 149.333 192 .001 151.875-139.541 192-213.333 192z"/></svg>