<svg xmlns="http://www.w3.org/2000/svg" viewBox="0 0 512 512"><path d="M481.692 93.619c-13.637-42.485-42.709-73.665-79.762-85.547-68.312-21.906-124.485 6.26-145.93 19.744-21.448-13.485-77.622-41.65-145.93-19.744C73.006 19.957 43.931 51.149 30.298 93.65c-17.927 55.888-6.35 119.199 30.972 169.355 16.226 21.809 27.197 45.851 32.607 71.46 2.403 11.378 4.492 23.896 6.208 37.208 5.153 39.977 12.742 72.063 22.558 95.366 11.758 27.915 26.927 42.99 45.085 44.806a30.92 30.92 0 0 0 3.07.154c17.872-.001 32.809-16.041 44.429-47.744 8.591-23.437 15.363-54.842 19.07-88.432 2.072-18.782 6.919-33.99 14.015-43.98 2.541-3.576 6.224-3.962 7.689-3.962 1.465 0 5.148.386 7.689 3.963 7.096 9.989 11.943 25.197 14.015 43.98 3.707 33.589 10.479 64.995 19.07 88.432 11.62 31.704 26.555 47.745 44.429 47.744a31.21 31.21 0 0 0 3.07-.154c18.158-1.816 33.327-16.891 45.085-44.806 9.815-23.303 17.405-55.389 22.558-95.366 1.716-13.314 3.805-25.831 6.207-37.202 5.406-25.589 16.393-49.655 32.656-71.53 37.289-50.156 48.845-113.455 30.912-169.323zm-54.927 151.469c-18.857 25.365-31.615 53.357-37.92 83.199-2.567 12.148-4.79 25.459-6.608 39.562-10.489 81.373-30.034 112.784-40.753 114.198-2.251-.797-9.951-8.199-18.229-32.688-7.016-20.752-12.628-48.033-15.805-76.818-2.667-24.173-9.182-43.696-19.364-58.028-7.365-10.368-19.36-16.558-32.086-16.558-12.726 0-24.721 6.189-32.087 16.559-10.182 14.333-16.696 33.856-19.364 58.028-3.177 28.785-8.789 56.066-15.804 76.818-8.278 24.489-15.979 31.891-18.23 32.688-10.718-1.414-30.264-32.825-40.753-114.198-1.818-14.1-4.041-27.413-6.609-39.568-6.309-29.866-19.053-57.837-37.877-83.138-31.567-42.425-41.466-95.641-26.483-142.352 10.645-33.187 32.665-57.324 60.414-66.222 29.294-9.395 59.501-8.793 89.781 1.787 23.128 8.082 37.641 19.261 37.749 19.345l9.241 7.225 9.248-7.197c.144-.112 14.657-11.291 37.785-19.373 30.28-10.581 60.486-11.182 89.781-1.787h.001c27.74 8.895 49.758 33.023 60.406 66.196 14.987 46.693 5.106 99.898-26.434 142.322z"/></svg>