<svg xmlns="http://www.w3.org/2000/svg" viewBox="0 0 512 512"><path d="M202.7 10.7C202.7 4.8 197.9 0 192 0h-85.3C83.1 0 64 19.1 64 42.7v426.7c0 23.5 19.1 42.7 42.7 42.7H192c5.9 0 10.7-4.8 10.7-10.7 0-29.4 23.9-53.3 53.3-53.3s53.3 23.9 53.3 53.3c0 5.9 4.8 10.7 10.7 10.7h85.3c23.5 0 42.7-19.1 42.7-42.7V42.7C448 19.1 428.9 0 405.3 0H320c-5.9 0-10.7 4.8-10.7 10.7 0 29.4-23.9 53.3-53.3 53.3s-53.3-23.9-53.3-53.3zM256 85.3c37.6 0 68.7-27.9 73.9-64h75.4c11.8 0 21.3 9.6 21.3 21.3v426.7c0 11.8-9.6 21.3-21.3 21.3h-75.4c-5.2-36.1-36.4-64-73.9-64s-68.7 27.9-73.9 64h-75.4c-11.8 0-21.3-9.6-21.3-21.3V42.7c0-11.8 9.6-21.3 21.3-21.3h75.4c5.2 36.1 36.3 63.9 73.9 63.9z"/><path d="M104 373.3c0 5.9 4.8 10.7 10.7 10.7h24c5.9 0 10.7-4.8 10.7-10.7s-4.8-10.7-10.7-10.7h-24c-5.9.1-10.7 4.8-10.7 10.7zm88 0c0 5.9 4.8 10.7 10.7 10.7H224c5.9 0 10.7-4.8 10.7-10.7s-4.8-10.7-10.7-10.7h-21.3c-5.9.1-10.7 4.8-10.7 10.7zm85.3 0c0 5.9 4.8 10.7 10.7 10.7h21.3c5.9 0 10.7-4.8 10.7-10.7s-4.8-10.7-10.7-10.7H288c-5.9.1-10.7 4.8-10.7 10.7zm85.4 0c0 5.9 4.8 10.7 10.7 10.7h21.3c5.9 0 10.7-4.8 10.7-10.7s-4.8-10.7-10.7-10.7h-21.3c-6 .1-10.7 4.8-10.7 10.7zM151.1 154.1c-3.3 4.9-1.9 11.5 3 14.8l192 128c4.9 3.3 11.5 1.9 14.8-3 1.2-1.8 1.8-3.9 1.8-5.9 0-3.4-1.7-6.8-4.8-8.9l-192-128c-4.9-3.2-11.5-1.9-14.8 3zm51.6 80.6c-29.4 0-53.3 19.1-53.3 42.7s23.9 42.7 53.3 42.7S256 301 256 277.4s-23.9-42.7-53.3-42.7zm0 64c-17.3 0-32-9.8-32-21.3 0-11.6 14.7-21.3 32-21.3s32 9.8 32 21.3-14.7 21.3-32 21.3zm53.3-128c0 23.5 23.9 42.7 53.3 42.7s53.3-19.1 53.3-42.7c0-23.5-23.9-42.7-53.3-42.7S256 147.1 256 170.7zm85.3 0c0 11.6-14.7 21.3-32 21.3s-32-9.8-32-21.3c0-11.6 14.7-21.3 32-21.3s32 9.7 32 21.3z"/></svg>