<svg xmlns="http://www.w3.org/2000/svg" viewBox="0 0 496 496"><path d="M424.504 411.608c-11.152-35.688-42.24-62.424-79.2-68.112L304 337.136v-8.288c26.92-15.624 46.784-42.072 53.488-73.4C376.928 252.736 392 236.176 392 216v-93.4a78.083 78.083 0 0 0-49.752-72.84A78.089 78.089 0 0 0 269.4 0H248c-79.4 0-144 64.6-144 144v72c0 20.176 15.072 36.736 34.512 39.448 6.704 31.328 26.568 57.776 53.488 73.4v8.288l-41.304 6.352c-36.96 5.688-68.048 32.424-79.2 68.112L45.12 496h405.76l-26.376-84.392zM315.84 355.144l10.2 25.496-44.36 26.616 30.128 22.6-49.448 19.776 38.712-96.76 14.768 2.272zm43.824-116.512c.128-2.208.336-4.392.336-6.632v-38.528c9.288 3.312 16 12.112 16 22.528 0 10.536-6.872 19.416-16.336 22.632zM248 16h21.4a62.116 62.116 0 0 1 59.008 42.528l1.264 3.792 3.792 1.264c5.984 2 11.456 4.896 16.4 8.416h-55.968C283.76 57.512 266.984 48 248 48s-35.76 9.512-45.888 24h-59.856C165.32 38.224 204.104 16 248 16zm40 88c0 22.056-17.944 40-40 40s-40-17.944-40-40 17.944-40 40-40 40 17.944 40 40zM133.08 88h61.28c-1.52 5.072-2.36 10.44-2.36 16s.84 10.928 2.36 16h-72.024c2.152-11.272 5.84-21.976 10.744-32zM120 216c0-10.416 6.712-19.216 16-22.528V232c0 2.24.208 4.424.336 6.632C126.872 235.416 120 226.536 120 216zm32 16v-80h-16v24.808c-5.944 1.216-11.328 3.856-16 7.392V144c0-2.704.24-5.344.408-8h81.704c10.136 14.488 26.912 24 45.888 24s35.76-9.512 45.888-24H312v-16h-10.36c1.52-5.072 2.36-10.44 2.36-16s-.84-10.928-2.36-16h63.72c6.248 9.312 9.944 20.304 10.432 32H328v16h48v48.208c-4.672-3.536-10.056-6.184-16-7.392V152h-16v80c0 52.936-43.064 96-96 96s-96-43.064-96-96zm28.16 123.144l14.768-2.272 37.864 94.656-48.264-17.928 29.792-22.344-44.36-26.616 10.2-25.496zM240 480h-94.936l6.872-55.008-15.872-1.984L128.936 480H66.88l19.888-63.624c9.344-29.904 35.392-52.312 66.36-57.072l8.672-1.336-11.752 29.384 35.64 21.384-34.208 25.656L240 467.28V480zm-32-137.544v-5.968c12.44 4.784 25.896 7.512 40 7.512s27.56-2.728 40-7.512v5.968l-40 100-40-100zm151.936 80.552l-15.872 1.984L350.936 480H256v-10.584l88.184-35.28-33.872-25.4 35.64-21.384-11.752-29.384 8.672 1.336c30.968 4.768 57.016 27.168 66.36 57.072L429.12 480h-62.056l-7.128-56.992z"/><path d="M303.592 266.528l-15.176-5.064C288.344 261.656 281.304 280 248 280c-33.144 0-40.168-17.888-40.456-18.656l-15.136 5.184C192.816 267.736 202.752 296 248 296s55.184-28.264 55.592-29.472zM248 80c-13.232 0-24 10.768-24 24s10.768 24 24 24 24-10.768 24-24-10.768-24-24-24zm0 32c-4.408 0-8-3.592-8-8s3.592-8 8-8 8 3.592 8 8-3.592 8-8 8zm48 72h16v16h-16zm-112 0h16v16h-16z"/></svg>