<svg xmlns="http://www.w3.org/2000/svg" viewBox="0 0 473.167 473.167"><path d="M434.716 0h-86a4.25 4.25 0 0 0-4.25 4.25v15.583H131.732c-5.414-8.224-14.721-13.667-25.281-13.667-16.68 0-30.25 13.57-30.25 30.25 0 11.769 6.76 21.981 16.596 26.98l81.672 165.2a30.07 30.07 0 0 0-2.936 12.986 30.05 30.05 0 0 0 3.436 13.976L98.765 409.701a59.683 59.683 0 0 0-5.115-.234c-32.781 0-59.449 26.669-59.449 59.449a4.25 4.25 0 0 0 4.25 4.25h110.398a4.25 4.25 0 0 0 4.249-4.681c-.137-19.014-9.254-35.923-23.301-46.718l74.166-150.021c15.666-1.122 28.07-14.217 28.07-30.163 0-16.29-12.945-29.606-29.088-30.221l-75.66-153.045A30.502 30.502 0 0 0 131.732 53h212.734v53.25a4.25 4.25 0 0 0 4.25 4.25h11.418v37.083a4.25 4.25 0 0 0 4.25 4.25h9.082v32.217c0 .985.344 1.94.969 2.701l13.031 15.831v144.364l-12.008-12.008a4.25 4.25 0 0 0-6.01 6.011l12.074 12.075h-17.074a4.25 4.25 0 1 0 0 8.5h17.074l-12.074 12.074a4.25 4.25 0 0 0 6.01 6.011l12.008-12.008v16.673a4.25 4.25 0 1 0 8.5 0v-16.806l12.141 12.14a4.233 4.233 0 0 0 3.004 1.245 4.25 4.25 0 0 0 3.006-7.256l-12.072-12.072h17.074a4.25 4.25 0 1 0 0-8.5h-17.076l12.074-12.073a4.25 4.25 0 0 0-6.01-6.011l-12.141 12.14V202.583l13.031-15.831a4.247 4.247 0 0 0 .969-2.701v-32.217h9.084a4.25 4.25 0 0 0 4.25-4.25V110.5h11.416a4.25 4.25 0 0 0 4.25-4.25v-102a4.25 4.25 0 0 0-4.25-4.25zm-4.25 8.5v40.167H353.06a4.22 4.22 0 0 0-.094-.825v-22.85c.064-.294.103-.596.103-.909s-.039-.615-.103-.909V8.5h77.5zM135.038 439.259H82.995a4.25 4.25 0 1 0 0 8.5h55.496c.484 0 .941-.098 1.375-.247a50.58 50.58 0 0 1 4.557 17.154H42.876c2.166-26.112 24.111-46.699 50.773-46.699 2.375 0 4.713.171 7.004.487.072.01.146.02.221.026 14.037 2.002 26.241 9.753 34.164 20.779zm-27.496-28.137l73.123-147.909a30.22 30.22 0 0 0 14.176 7.807l-72.193 146.028a59.034 59.034 0 0 0-15.106-5.926zm115.99-169.539c0 11.993-9.756 21.75-21.75 21.75-11.992 0-21.75-9.757-21.75-21.75s9.758-21.75 21.75-21.75c11.995 0 21.75 9.757 21.75 21.75zm-29.572-29.218a30.264 30.264 0 0 0-13.955 8.255l-76.17-154.074c.863.075 1.734.121 2.615.121 4.979 0 9.676-1.216 13.822-3.356l73.688 149.054zM106.45 58.167c-11.992 0-21.75-9.757-21.75-21.75s9.758-21.75 21.75-21.75c11.994 0 21.75 9.757 21.75 21.75s-9.755 21.75-21.75 21.75zM135.595 44.5c.715-2.575 1.105-5.283 1.105-8.083s-.391-5.508-1.105-8.083h208.871V44.5H135.595zm265.871 138.026l-9.75 11.845-9.75-11.845v-30.693h19.5v30.693zm13.334-39.193h-46.166V110.5H414.8v32.833zM352.966 102V77.277h47.85a4.25 4.25 0 1 0 0-8.5h-47.85v-11.61h77.5V102h-77.5z"/><path d="M375.05 29.833h33.334a4.25 4.25 0 1 0 0-8.5H375.05a4.25 4.25 0 1 0 0 8.5z"/></svg>